SplineFontDB: 3.0
FontName: Untitled1
FullName: Untitled1
FamilyName: Untitled1
Weight: Regular
Copyright: Copyright (c) 2019, Jack
UComments: "2019-8-23: Created with FontForge (http://fontforge.org)"
Version: 001.000
ItalicAngle: 0
UnderlinePosition: -1020
UnderlineWidth: 178
Ascent: 1000
Descent: 0
InvalidEm: 0
LayerCount: 2
Layer: 0 0 "Back" 1
Layer: 1 0 "Fore" 0
XUID: [1021 647 -312734098 29385]
StyleMap: 0x0000
FSType: 0
OS2Version: 0
OS2_WeightWidthSlopeOnly: 0
OS2_UseTypoMetrics: 1
CreationTime: 1566577596
ModificationTime: 1567093704
OS2TypoAscent: 0
OS2TypoAOffset: 1
OS2TypoDescent: 0
OS2TypoDOffset: 1
OS2TypoLinegap: 90
OS2WinAscent: 0
OS2WinAOffset: 1
OS2WinDescent: 0
OS2WinDOffset: 1
HheadAscent: 0
HheadAOffset: 1
HheadDescent: 0
HheadDOffset: 1
Lookup: 260 0 0 "Above" { "Above-1"  } ['mark' ('DFLT' <'dflt' > 'latn' <'ROM ' 'TRK ' 'dflt' > ) ]
MarkAttachClasses: 1
DEI: 91125
Encoding: Custom
UnicodeInterp: none
NameList: AGL For New Fonts
DisplaySize: -96
AntiAlias: 1
FitToEm: 0
WinInfo: 0 16 10
BeginPrivate: 0
EndPrivate
Grid
1099 2610 m 0
 1099 -1390 l 1024
  Named: "right"
1112 2610 m 0
 1112 -1390 l 1024
  Named: "o-right"
88 2610 m 0
 88 -1390 l 1024
  Named: "o-left"
100 2612 m 0
 100 -1388 l 1024
  Named: "left"
-1993 -12 m 0
 4007 -12 l 1024
  Named: "c-bot"
-2000 1012 m 0
 4000 1012 l 1024
  Named: "z-top"
-1998 1000 m 0
 4002 1000 l 1024
  Named: "z-top"
EndSplineSet
AnchorClass2: "Above" "Above-1"
BeginChars: 381 197

StartChar: my
Encoding: 0 60256 1
Width: 1200
VWidth: 2000
Flags: W
HStem: 0 100<200 999> 450 100<200 999> 900 100<200 999>
VStem: 100 100<100 450 550 900> 999 100<100 450 550 900>
CounterMasks: 1 e0
AnchorPoint: "Above" 600 0 basechar 0
LayerCount: 2
Back
SplineSet
150 950 m 29
 1049 950 l 29
 1049 50 l 29
 150 50 l 29
 150 950 l 29
150 500 m 29
 1049 500 l 1053
EndSplineSet
Fore
SplineSet
150 1000 m 2
 1049 1000 l 2
 1079.26507571 1000 1099 971.459808665 1099 950 c 2
 1099 50 l 2
 1099 19.7349242889 1070.45980867 0 1049 0 c 2
 150 0 l 2
 119.734924289 0 100 28.5401913347 100 50 c 2
 100 950 l 2
 100 980.265075711 128.540191335 1000 150 1000 c 2
999 550 m 1
 999 900 l 1
 200 900 l 1
 200 550 l 1
 999 550 l 1
999 450 m 1
 200 450 l 1
 200 100 l 1
 999 100 l 1
 999 450 l 1
EndSplineSet
EndChar

StartChar: py
Encoding: 1 60257 2
Width: 1200
VWidth: 2000
Flags: W
HStem: 0 100<200 1099> 450 100<200 1099> 900 100<200 1099>
VStem: 100 100<100 450 550 900>
CounterMasks: 1 e0
AnchorPoint: "Above" 600 0 basechar 0
LayerCount: 2
Back
SplineSet
150 500 m 29
 1099 500 l 1053
1099 950 m 29
 150 950 l 29
 150 50 l 29
 1099 50 l 1053
EndSplineSet
Fore
SplineSet
1099 950 m 1
 1099 900 l 1
 200 900 l 1
 200 550 l 1
 1099 550 l 1
 1099 500 l 1
 1099 450 l 1
 200 450 l 1
 200 100 l 1
 1099 100 l 1
 1099 50 l 1
 1099 0 l 1
 150 0 l 2
 128.540191335 0 100 19.7349242889 100 50 c 2
 100 950 l 2
 100 971.459808665 119.734924289 1000 150 1000 c 2
 1099 1000 l 1
 1099 950 l 1
EndSplineSet
EndChar

StartChar: by
Encoding: 2 60258 3
Width: 1200
VWidth: 2000
Flags: W
HStem: 0 100<100 999> 450 100<100 999> 900 100<100 999>
VStem: 999 100<100 450 550 900>
CounterMasks: 1 e0
AnchorPoint: "Above" 600 0 basechar 0
LayerCount: 2
Back
SplineSet
100 50 m 29
 1049 50 l 29
 1049 950 l 29
 100 950 l 1053
100 500 m 29
 1049 500 l 1053
EndSplineSet
Fore
SplineSet
100 500 m 1
 100 550 l 1
 999 550 l 1
 999 900 l 1
 100 900 l 1
 100 950 l 1
 100 1000 l 1
 1049 1000 l 2
 1070.45980867 1000 1099 980.265075711 1099 950 c 2
 1099 50 l 2
 1099 28.5401913347 1079.26507571 0 1049 0 c 2
 100 0 l 1
 100 50 l 1
 100 100 l 1
 999 100 l 1
 999 450 l 1
 100 450 l 1
 100 500 l 1
EndSplineSet
EndChar

StartChar: fy
Encoding: 3 60259 4
Width: 1200
VWidth: 2000
Flags: W
HStem: 0.5 100<199.5 999.5> 450 100<199.5 999.5>
VStem: 99.5 100<100.5 450 550 999.5> 999.5 100<100.5 450 550 999.5>
AnchorPoint: "Above" 600 0 basechar 0
LayerCount: 2
Back
SplineSet
150 500 m 29
 1049 500 l 1053
149.5 999.5 m 25
 149.5 50.5 l 25
 1049.5 50.5 l 25
 1049.5 999.5 l 1049
EndSplineSet
Fore
SplineSet
149.5 999.5 m 1
 199.5 999.5 l 1
 199.5 550 l 1
 999.5 550 l 1
 999.5 999.5 l 1
 1049.5 999.5 l 1
 1099.5 999.5 l 1
 1099.5 50.5 l 2
 1099.5 29.0401913347 1079.76507571 0.5 1049.5 0.5 c 2
 149.5 0.5 l 2
 128.040191335 0.5 99.5 20.2349242889 99.5 50.5 c 2
 99.5 999.5 l 1
 149.5 999.5 l 1
199.5 450 m 1
 199.5 100.5 l 1
 999.5 100.5 l 1
 999.5 450 l 1
 199.5 450 l 1
EndSplineSet
EndChar

StartChar: vy
Encoding: 4 60260 5
Width: 1200
VWidth: 2000
Flags: W
HStem: 0 21G<100 200 999 1099> 450 100<200 999> 900 100<200 999>
VStem: 100 100<0 450 550 900> 999 100<0 450 550 900>
AnchorPoint: "Above" 600 0 basechar 0
LayerCount: 2
Back
SplineSet
150 500 m 29
 1049 500 l 1053
150 0 m 29
 150 950 l 29
 1049 950 l 29
 1049 0 l 1053
EndSplineSet
Fore
SplineSet
150 0 m 1
 100 0 l 1
 100 950 l 2
 100 980.265075711 128.540191335 1000 150 1000 c 2
 1049 1000 l 2
 1079.26507571 1000 1099 971.459808665 1099 950 c 2
 1099 0 l 1
 1049 0 l 1
 999 0 l 1
 999 450 l 1
 200 450 l 1
 200 0 l 1
 150 0 l 1
999 550 m 1
 999 900 l 1
 200 900 l 1
 200 550 l 1
 999 550 l 1
EndSplineSet
EndChar

StartChar: ky
Encoding: 5 60261 6
Width: 1200
VWidth: 2000
Flags: W
AnchorPoint: "Above" 600 0 basechar 0
LayerCount: 2
Back
SplineSet
1099 1000 m 29
 87 500 l 29
 1099 0 l 1053
EndSplineSet
Fore
SplineSet
1099 1000 m 1
 1121.1478081 955.172836402 l 1
 199.877987225 500 l 1
 1121.1478081 44.8271635984 l 1
 1099 0 l 1
 1076.8521919 -44.8271635984 l 1
 64.852191898 455.172836402 l 2
 57.8357659273 458.639450023 48.9981470094 466.098166706 44.0486689672 474.40345409 c 0
 29.335360872 499.092573037 39.0848140892 532.096245709 64.852191898 544.827163598 c 2
 1076.8521919 1044.8271636 l 1
 1099 1000 l 1
EndSplineSet
EndChar

StartChar: cy
Encoding: 6 60262 7
Width: 1200
VWidth: 2000
Flags: W
HStem: 0 21G<550 650> 450 100<100 478.047 715.526 1099> 951.443 95.1132<1039.66 1088.21>
VStem: 550 100<0 448.098>
LayerCount: 2
Back
SplineSet
100 500 m 29
 1099 500 l 1053
600 330 m 29
 600 0 l 1053
100 1001 m 21
 203.647191149 953.656545899 594.52962498 631.863643584 600 330 c 5
 595.097845742 620.596734917 968.986358253 956.758547402 1099 999 c 1037
EndSplineSet
Fore
SplineSet
1106.81963381 975.221706247 m 1
 1114.53926763 951.443412495 l 1
 1034.44156835 925.439658224 823.429241662 744.930301323 715.52625782 550 c 1
 1099 550 l 1
 1099 500 l 1
 1099 450 l 1
 670.577149261 450 l 1
 656.897426479 409.463752495 649.343638362 369.330422007 649.992887213 330.843343422 c 0
 649.997635931 330.561842287 649.99977947 330.280720371 649.99977947 330 c 2
 650 330 l 1
 650 0 l 1
 600 0 l 1
 550 0 l 1
 550 329.528963047 l 2
 549.226976589 368.921389326 540.401631061 409.430195012 525.624897167 450 c 1
 100 450 l 1
 100 500 l 1
 100 550 l 1
 478.046682278 550 l 1
 363.600904414 747.330029574 146.273515823 924.89424985 79.2258481615 955.519953657 c 1
 100 1001 l 1
 120.774151839 1046.48004634 l 1
 216.487357746 1002.76063899 475.096315657 795.714132107 592.962397604 550 c 1
 601.664337787 550 l 1
 712.578434093 793.038983524 961.163367216 1006.78776254 1083.66073237 1046.55658751 c 1
 1099.1 999 l 1
 1106.81963381 975.221706247 l 1
EndSplineSet
EndChar

StartChar: xy
Encoding: 7 60263 8
Width: 1200
VWidth: 2000
Flags: W
HStem: 0 21G<550 650> 951.443 95.1132<1038.77 1088.21>
VStem: 550 100<0 492.781>
LayerCount: 2
Back
SplineSet
600 330 m 29
 600 0 l 1053
100 1001 m 21
 203.647191149 953.656545899 594.52962498 631.863643584 600 330 c 5
 595.097845742 620.596734917 968.986358253 956.758547402 1099 999 c 1037
EndSplineSet
Fore
SplineSet
1106.81963381 975.221706247 m 1
 1114.53926763 951.443412495 l 1
 1004.23788643 915.634019239 645.674652438 586.8256851 649.992887213 330.843343422 c 0
 649.997635931 330.561842287 649.99977947 330.280720371 649.99977947 330 c 2
 650 330 l 1
 650 0 l 1
 600 0 l 1
 550 0 l 1
 550 329.528963047 l 1
 544.770697831 596.008473668 171.053418844 913.575407648 79.2258481615 955.519953657 c 1
 100 1001 l 1
 120.774151839 1046.48004634 l 1
 217.713566745 1002.20053728 481.749276831 790.382262475 597.422506498 540.537482599 c 1
 706.114812163 787.470150648 959.576016135 1006.2724283 1083.66073237 1046.55658751 c 1
 1099.1 999 l 1
 1106.81963381 975.221706247 l 1
EndSplineSet
EndChar

StartChar: iy
Encoding: 8 60264 9
Width: 1200
VWidth: 4000
Flags: W
HStem: 0.5 100<199.5 1099.5>
VStem: 99.5 100<100.5 999.5>
AnchorPoint: "Above" 599 0 basechar 0
LayerCount: 2
Back
SplineSet
150 1000 m 29
 150 50 l 29
 1100.5 50.5 l 1053
EndSplineSet
Fore
SplineSet
149.5 999.5 m 1
 199.5 999.5 l 1
 199.5 100.5 l 1
 1099.5 100.5 l 1
 1099.5 50.5 l 1
 1099.5 0.5 l 1
 149.5 0.5 l 2
 128.040191335 0.5 99.5 20.2349242889 99.5 50.5 c 2
 99.5 999.5 l 1
 149.5 999.5 l 1
EndSplineSet
EndChar

StartChar: ry
Encoding: 9 60265 10
Width: 1200
VWidth: 2000
Flags: W
AnchorPoint: "Above" 600 0 basechar 0
LayerCount: 2
Back
SplineSet
1049 1000 m 29
 150 0 l 1053
150 1000 m 29
 1049 0 l 1053
EndSplineSet
Fore
SplineSet
150 1000 m 1
 187.183190514 1033.42768827 l 1
 599.5 574.788300634 l 1
 1011.81680949 1033.42768827 l 1
 1049 1000 l 1
 1086.18319051 966.572311728 l 1
 666.73468227 500 l 1
 1086.18319051 33.427688272 l 1
 1049 0 l 1
 1011.81680949 -33.427688272 l 1
 599.5 425.211699366 l 1
 187.183190514 -33.427688272 l 1
 150 0 l 1
 112.816809486 33.427688272 l 1
 532.26531773 500 l 1
 112.816809486 966.572311728 l 1
 150 1000 l 1
EndSplineSet
EndChar

StartChar: ebu
Encoding: 10 60266 11
Width: 1200
VWidth: 0
Flags: W
HStem: -12 100<337.097 562.903> 450 100<877 999> 912 100<337.097 562.903>
VStem: 88 100<276.625 723.375> 712 100<276.625 723.375> 877 222<450 550> 999 100<0 450 550 1000>
CounterMasks: 1 e0
LayerCount: 2
Back
SplineSet
138 500 m 4
 138 755.111111111 277.68 962 450 962 c 4
 622.32 962 762 755.111111111 762 500 c 4
 762 244.888888889 622.32 38 450 38 c 4
 277.68 38 138 244.888888889 138 500 c 4
877 500 m 29
 1049 500 l 1045
1049 1000 m 29
 1049 0 l 1053
EndSplineSet
Fore
SplineSet
1049 1000 m 1xfa
 1099 1000 l 1
 1099 0 l 1
 1049 0 l 1
 999 0 l 1
 999 450 l 1xfa
 877 450 l 1
 877 500 l 1
 877 550 l 1xfc
 999 550 l 1
 999 1000 l 1
 1049 1000 l 1xfa
88 500 m 0
 88 766.01638937 233.784752393 1012 450 1012 c 0
 666.214904364 1012 812 766.015740879 812 500 c 0
 812 233.98361063 666.215247607 -12 450 -12 c 0
 233.785095636 -12 88 233.984259121 88 500 c 0
188 500 m 0
 188 255.793518657 321.574904364 88 450 88 c 0
 578.424752393 88 712 255.794167148 712 500 c 0
 712 744.206481343 578.425095636 912 450 912 c 0
 321.575247607 912 188 744.205832852 188 500 c 0
EndSplineSet
EndChar

StartChar: obu
Encoding: 11 60267 12
Width: 1200
VWidth: 0
Flags: W
HStem: -12 100<337.097 562.903> 450 100<977 1099> 912 100<337.097 562.903>
VStem: 88 100<276.625 723.375> 712 100<276.625 723.375> 877 222<450 550> 877 100<0 450 550 1000>
CounterMasks: 1 e0
LayerCount: 2
Back
SplineSet
1099 500 m 25
 927 500 l 1041
927 1000 m 25
 927 0 l 1049
138 500 m 4
 138 755.111111111 277.68 962 450 962 c 4
 622.32 962 762 755.111111111 762 500 c 4
 762 244.888888889 622.32 38 450 38 c 4
 277.68 38 138 244.888888889 138 500 c 4
EndSplineSet
Fore
SplineSet
88 500 m 0xf8
 88 766.01638937 233.784752393 1012 450 1012 c 0
 666.214904364 1012 812 766.015740879 812 500 c 0
 812 233.98361063 666.215247607 -12 450 -12 c 0
 233.785095636 -12 88 233.984259121 88 500 c 0xf8
188 500 m 0
 188 255.793518657 321.574904364 88 450 88 c 0
 578.424752393 88 712 255.794167148 712 500 c 0
 712 744.206481343 578.425095636 912 450 912 c 0
 321.575247607 912 188 744.205832852 188 500 c 0
927 1000 m 1
 977 1000 l 1
 977 550 l 1xfa
 1099 550 l 1
 1099 500 l 1
 1099 450 l 1xfc
 977 450 l 1
 977 0 l 1
 927 0 l 1
 877 0 l 1
 877 1000 l 1xfa
 927 1000 l 1
EndSplineSet
EndChar

StartChar: ibu
Encoding: 12 60268 13
Width: 1200
VWidth: 0
Flags: W
HStem: 0 100<200 1099> 288 100<384.535 815.465> 912 100<384.535 815.465>
VStem: 100 100<100 250 522.959 777.041> 1012 100<536.852 763.148>
LayerCount: 2
Back
SplineSet
138 650 m 0
 138 869.874956837 427.6796875 962 600 962 c 0
 772.3203125 962 1062 869.874956837 1062 650 c 0
 1062 430.125043163 772.3203125 338 600 338 c 0
 427.6796875 338 138 430.125043163 138 650 c 0
1099 50 m 29
 150 50 l 29
 150 250 l 1053
EndSplineSet
Fore
SplineSet
1099 50 m 1
 1099 0 l 1
 150 0 l 2
 119.734924289 0 100 28.5401913347 100 50 c 2
 100 250 l 1
 150 250 l 1
 200 250 l 1
 200 100 l 1
 1099 100 l 1
 1099 50 l 1
88 650 m 0
 88 921.217867057 425.278483533 1012 600 1012 c 0
 774.722877853 1012 1112 921.218525268 1112 650 c 0
 1112 378.782132943 774.721516467 288 600 288 c 0
 425.277122147 288 88 378.781474732 88 650 c 0
188 650 m 0
 188 481.468611594 430.082252853 388 600 388 c 0
 769.919108533 388 1012 481.467953383 1012 650 c 0
 1012 818.531388406 769.917747147 912 600 912 c 0
 430.080891467 912 188 818.532046617 188 650 c 0
EndSplineSet
EndChar

StartChar: abu
Encoding: 14 60270 15
Width: 1200
VWidth: 0
Flags: W
HStem: 0 100<100 1099> 288 100<384.535 815.465> 912 100<384.535 815.465>
VStem: 88 100<536.852 763.148> 1012 100<536.852 763.148>
AnchorPoint: "Above" 600 0 basechar 0
LayerCount: 2
Back
SplineSet
138 650 m 0
 138 869.874956837 427.6796875 962 600 962 c 0
 772.3203125 962 1062 869.874956837 1062 650 c 0
 1062 430.125043163 772.3203125 338 600 338 c 0
 427.6796875 338 138 430.125043163 138 650 c 0
1099 50 m 29
 100 50 l 1053
EndSplineSet
Fore
SplineSet
1099 50 m 1
 1099 0 l 1
 100 0 l 1
 100 50 l 1
 100 100 l 1
 1099 100 l 1
 1099 50 l 1
88 650 m 0
 88 921.217867057 425.278483533 1012 600 1012 c 0
 774.722877853 1012 1112 921.218525268 1112 650 c 0
 1112 378.782132943 774.721516467 288 600 288 c 0
 425.277122147 288 88 378.781474732 88 650 c 0
188 650 m 0
 188 481.468611594 430.082252853 388 600 388 c 0
 769.919108533 388 1012 481.467953383 1012 650 c 0
 1012 818.531388406 769.917747147 912 600 912 c 0
 430.080891467 912 188 818.532046617 188 650 c 0
EndSplineSet
EndChar

StartChar: ybu
Encoding: 15 60271 16
Width: 1200
VWidth: 0
Flags: W
HStem: -12 100<337.097 562.903> 912 100<337.097 562.903>
VStem: 88 100<276.625 723.375> 712 100<276.625 723.375> 999 100<0 1000>
AnchorPoint: "Above" 600 0 basechar 0
LayerCount: 2
Back
SplineSet
138 500 m 4
 138 755.111111111 277.68 962 450 962 c 4
 622.32 962 762 755.111111111 762 500 c 4
 762 244.888888889 622.32 38 450 38 c 4
 277.68 38 138 244.888888889 138 500 c 4
1049 1000 m 29
 1049 0 l 1053
EndSplineSet
Fore
SplineSet
1049 1000 m 1
 1099 1000 l 1
 1099 0 l 1
 1049 0 l 1
 999 0 l 1
 999 1000 l 1
 1049 1000 l 1
88 500 m 0
 88 766.01638937 233.784752393 1012 450 1012 c 0
 666.214904364 1012 812 766.015740879 812 500 c 0
 812 233.98361063 666.215247607 -12 450 -12 c 0
 233.785095636 -12 88 233.984259121 88 500 c 0
188 500 m 0
 188 255.793518657 321.574904364 88 450 88 c 0
 578.424752393 88 712 255.794167148 712 500 c 0
 712 744.206481343 578.425095636 912 450 912 c 0
 321.575247607 912 188 744.205832852 188 500 c 0
EndSplineSet
EndChar

StartChar: ny
Encoding: 16 60272 17
Width: 1200
VWidth: 2000
Flags: W
HStem: 0 100<200 999> 900 100<200 999>
VStem: 100 100<100 900> 999 100<100 900>
AnchorPoint: "Above" 600 0 basechar 0
LayerCount: 2
Back
SplineSet
150 950 m 29
 1049 950 l 29
 1049 50 l 29
 150 50 l 29
 150 950 l 29
EndSplineSet
Fore
SplineSet
150 1000 m 2
 1049 1000 l 2
 1079.26507571 1000 1099 971.459808665 1099 950 c 2
 1099 50 l 2
 1099 19.7349242889 1070.45980867 0 1049 0 c 2
 150 0 l 2
 119.734924289 0 100 28.5401913347 100 50 c 2
 100 950 l 2
 100 980.265075711 128.540191335 1000 150 1000 c 2
200 900 m 1
 200 100 l 1
 999 100 l 1
 999 900 l 1
 200 900 l 1
EndSplineSet
EndChar

StartChar: ty
Encoding: 17 60273 18
Width: 1200
VWidth: 2000
Flags: W
HStem: 0 100<200 1099> 900 100<200 1099>
VStem: 100 100<100 900>
AnchorPoint: "Above" 600 0 basechar 0
LayerCount: 2
Back
SplineSet
1100 950 m 25
 150 950 l 25
 150 50 l 25
 1100 50 l 1049
EndSplineSet
Fore
SplineSet
1099 950 m 1
 1099 900 l 1
 200 900 l 1
 200 100 l 1
 1099 100 l 1
 1099 50 l 1
 1099 0 l 1
 150 0 l 2
 128.540191335 0 100 19.7349242889 100 50 c 2
 100 950 l 2
 100 971.459808665 119.734924289 1000 150 1000 c 2
 1099 1000 l 1
 1099 950 l 1
EndSplineSet
EndChar

StartChar: dy
Encoding: 18 60274 19
Width: 1200
VWidth: 2000
Flags: W
HStem: 0 100<100 999> 900 100<100 999>
VStem: 999 100<100 900>
AnchorPoint: "Above" 600 0 basechar 0
LayerCount: 2
Back
SplineSet
100 50 m 29
 1049 50 l 29
 1049 950 l 29
 100 950 l 1053
EndSplineSet
Fore
SplineSet
100 50 m 1
 100 100 l 1
 999 100 l 1
 999 900 l 1
 100 900 l 1
 100 950 l 1
 100 1000 l 1
 1049 1000 l 2
 1070.45980867 1000 1099 980.265075711 1099 950 c 2
 1099 50 l 2
 1099 28.5401913347 1079.26507571 0 1049 0 c 2
 100 0 l 1
 100 50 l 1
EndSplineSet
EndChar

StartChar: sy
Encoding: 19 60275 20
Width: 1200
VWidth: 2000
Flags: W
HStem: 0.5 100<199.5 999.5>
VStem: 99.5 100<100.5 999.5> 999.5 100<100.5 999.5>
AnchorPoint: "Above" 600 0 basechar 0
LayerCount: 2
Back
SplineSet
149.5 999.5 m 29
 149.5 50.5 l 29
 1049.5 50.5 l 29
 1049.5 999.5 l 1053
EndSplineSet
Fore
SplineSet
149.5 999.5 m 1
 199.5 999.5 l 1
 199.5 100.5 l 1
 999.5 100.5 l 1
 999.5 999.5 l 1
 1049.5 999.5 l 1
 1099.5 999.5 l 1
 1099.5 50.5 l 2
 1099.5 29.0401913347 1079.76507571 0.5 1049.5 0.5 c 2
 149.5 0.5 l 2
 128.040191335 0.5 99.5 20.2349242889 99.5 50.5 c 2
 99.5 999.5 l 1
 149.5 999.5 l 1
EndSplineSet
EndChar

StartChar: zy
Encoding: 20 60276 21
Width: 1200
VWidth: 2000
Flags: W
HStem: 0.5 21G<99.5 199.5 999.5 1099.5> 899.5 100<199.5 999.5>
VStem: 99.5 100<0.5 899.5> 999.5 100<0.5 899.5>
AnchorPoint: "Above" 600 0 basechar 0
LayerCount: 2
Back
SplineSet
1049.5 0.5 m 29
 1049.5 949.5 l 29
 149.5 949.5 l 29
 149.5 0.5 l 1053
EndSplineSet
Fore
SplineSet
1049.5 0.5 m 1
 999.5 0.5 l 1
 999.5 899.5 l 1
 199.5 899.5 l 1
 199.5 0.5 l 1
 149.5 0.5 l 1
 99.5 0.5 l 1
 99.5 949.5 l 2
 99.5 970.959808665 119.234924289 999.5 149.5 999.5 c 2
 1049.5 999.5 l 2
 1070.95980867 999.5 1099.5 979.765075711 1099.5 949.5 c 2
 1099.5 0.5 l 1
 1049.5 0.5 l 1
EndSplineSet
EndChar

StartChar: gy
Encoding: 21 60277 22
Width: 1200
VWidth: 2000
Flags: W
AnchorPoint: "Above" 600 0 basechar 0
LayerCount: 2
Back
SplineSet
100 1000 m 29
 1112 500 l 29
 100 0 l 1053
EndSplineSet
Fore
SplineSet
100 1000 m 1
 122.147808102 1044.8271636 l 1
 1134.1478081 544.827163598 l 2
 1159.91518591 532.096245709 1169.66463913 499.092573037 1154.95133103 474.40345409 c 0
 1149.91328535 465.949549067 1138.85887433 457.500438295 1134.1478081 455.172836402 c 2
 122.147808102 -44.8271635984 l 1
 100 0 l 1
 77.852191898 44.8271635984 l 1
 999.122012775 500 l 1
 77.852191898 955.172836402 l 1
 100 1000 l 1
EndSplineSet
EndChar

StartChar: jy
Encoding: 22 60278 23
Width: 1200
VWidth: 2000
Flags: W
HStem: -45.5566 95.1132<1039.66 1088.21> 451 100<100 478.046 715.526 1099>
VStem: 550 100<552.902 1001>
LayerCount: 2
Back
SplineSet
100 501 m 29
 1099 501 l 1053
600 671 m 29
 600 1001 l 1053
100 0 m 21
 203.647460938 47.34375 594.529296875 369.13671875 600 671 c 5
 595.09765625 380.403320312 968.986328125 44.2412109375 1099 2 c 1037
EndSplineSet
Fore
SplineSet
1106.81959224 25.7783072482 m 1
 1099.1 2 l 1
 1083.66081551 -45.5566144964 l 1
 961.163306615 -5.78797959358 712.578407874 207.960827309 601.664256195 451 c 1
 592.962211491 451 l 1
 475.096148928 205.28618912 216.487545217 -1.76039391067 120.774214525 -45.4800177098 c 1
 100 0 l 1
 79.2257854755 45.4800177098 l 1
 146.273649705 76.1059229987 363.600682678 253.670130487 478.046470279 451 c 1
 100 451 l 1
 100 501 l 1
 100 551 l 1
 525.624758558 551 l 1
 540.401537024 591.569822513 549.226929305 632.078639167 550 671.471065762 c 2
 550 1001 l 1
 600 1001 l 1
 650 1001 l 1
 650 671 l 1
 649.99977944 671 l 2
 649.99977944 670.719268735 649.99288666 670.438135901 649.99288666 670.156623827 c 0
 649.343612871 631.669561938 656.897380717 591.536241683 670.577086999 551 c 1
 1099 551 l 1
 1099 501 l 1
 1099 451 l 1
 715.526165668 451 l 1
 823.429124424 256.069653113 1034.44154258 75.5601953563 1114.53918449 49.5566144964 c 1
 1106.81959224 25.7783072482 l 1
EndSplineSet
EndChar

StartChar: yhy
Encoding: 23 60279 24
Width: 1200
VWidth: 4000
Flags: W
HStem: 0 21G<999 1099>
VStem: 100 100<170.806 1000> 999 100<0 829.194>
AnchorPoint: "Above" 600 0 basechar 0
LayerCount: 2
Back
SplineSet
150 1000 m 29
 150 50 l 29
 1049 950 l 29
 1049 0 l 1053
EndSplineSet
Fore
SplineSet
150 1000 m 1
 200 1000 l 1
 200 170.805633809 l 1
 1013.62501363 985.335680827 l 2
 1033.93653381 1005.66979447 1068.32432574 1004.3378732 1087.00217663 982.493608157 c 0
 1095.16498322 972.946979287 1099 955.748183005 1099 950 c 2
 1099 0 l 1
 1049 0 l 1
 999 0 l 1
 999 829.194366191 l 1
 185.374986367 14.664319173 l 2
 178.954017416 8.23620787594 166.035563487 1.10739171568 153.922854272 0.154125402803 c 0
 125.270640305 -2.10079460563 100 21.2591922616 100 50 c 2
 100 1000 l 1
 150 1000 l 1
EndSplineSet
EndChar

StartChar: uy
Encoding: 24 60280 25
Width: 1200
VWidth: 4000
Flags: W
HStem: 0.5 100<99.5 999.5>
VStem: 999.5 100<100.5 999.5>
AnchorPoint: "Above" 600 0 basechar 0
LayerCount: 2
Back
SplineSet
99.5 50.5 m 25
 1050.5 50.5 l 29
 1050.5 999.5 l 1053
EndSplineSet
Fore
SplineSet
99.5 50.5 m 1
 99.5 100.5 l 1
 999.5 100.5 l 1
 999.5 999.5 l 1
 1049.5 999.5 l 1
 1099.5 999.5 l 1
 1099.5 50.5 l 2
 1099.5 29.0401913347 1079.76507571 0.5 1049.5 0.5 c 2
 99.5 0.5 l 1
 99.5 50.5 l 1
EndSplineSet
EndChar

StartChar: ly
Encoding: 25 60281 26
Width: 1200
VWidth: 2000
Flags: W
HStem: 0 100<100 999> 450 100<200 999> 898 100<200 1099>
VStem: 100 100<550 898> 999 100<100 450>
AnchorPoint: "Above" 600 0 basechar 0
LayerCount: 2
Back
SplineSet
1099 948 m 29
 150 948 l 29
 150 500 l 29
 1049 500 l 29
 1049 50 l 29
 100 50 l 1053
EndSplineSet
Fore
SplineSet
1099 948 m 1
 1099 898 l 1
 200 898 l 1
 200 550 l 1
 1049 550 l 2
 1079.26507571 550 1099 521.459808665 1099 500 c 2
 1099 50 l 2
 1099 19.7349242889 1070.45980867 0 1049 0 c 2
 100 0 l 1
 100 50 l 1
 100 100 l 1
 999 100 l 1
 999 450 l 1
 150 450 l 2
 128.540191335 450 100 469.734924289 100 500 c 2
 100 948 l 2
 100 969.459808665 119.734924289 998 150 998 c 2
 1099 998 l 1
 1099 948 l 1
EndSplineSet
EndChar

StartChar: eibu
Encoding: 26 60283 27
Width: 1200
VWidth: 0
Flags: W
HStem: -12 100<337.097 562.903> 350 100<877 999> 550 100<877 999> 912 100<337.097 562.903>
VStem: 88 100<276.625 723.375> 712 100<276.625 723.375> 877 222<350 450 550 650> 999 100<0 350 450 550 650 1000>
LayerCount: 2
Back
SplineSet
877 400 m 29
 1049 400 l 1045
138 500 m 4
 138 755.111328125 277.6796875 962 450 962 c 4
 622.3203125 962 762 755.111328125 762 500 c 4
 762 244.888671875 622.3203125 38 450 38 c 4
 277.6796875 38 138 244.888671875 138 500 c 4
877 600 m 29
 1049 600 l 1045
1049 1000 m 29
 1049 0 l 1053
EndSplineSet
Fore
SplineSet
1049 1000 m 1xfd
 1099 1000 l 1
 1099 0 l 1
 1049 0 l 1
 999 0 l 1
 999 350 l 1xfd
 877 350 l 1
 877 400 l 1
 877 450 l 1xfe
 999 450 l 1
 999 550 l 1xfd
 877 550 l 1
 877 600 l 1
 877 650 l 1xfe
 999 650 l 1
 999 1000 l 1
 1049 1000 l 1xfd
88 500 m 0
 88 766.016576167 233.784460713 1012 450 1012 c 0
 666.215196036 1012 812 766.015927678 812 500 c 0
 812 233.983423833 666.215539287 -12 450 -12 c 0
 233.784803964 -12 88 233.984072322 88 500 c 0
188 500 m 0
 188 255.793271428 321.574571036 88 450 88 c 0
 578.425085713 88 712 255.793919917 712 500 c 0
 712 744.206728572 578.425428964 912 450 912 c 0
 321.574914287 912 188 744.206080083 188 500 c 0
EndSplineSet
EndChar

StartChar: oibu
Encoding: 27 60284 28
Width: 1200
VWidth: 0
Flags: W
HStem: -12 100<337.097 562.903> 350 100<977 1099> 550 100<977 1099> 912 100<337.097 562.903>
VStem: 88 100<276.625 723.375> 712 100<276.625 723.375> 877 222<350 450 550 650> 877 100<0 350 450 550 650 1000>
LayerCount: 2
Back
SplineSet
1099 400 m 29
 927 400 l 1045
1099 600 m 29
 927 600 l 1045
927 1000 m 29
 927 0 l 1053
138 500 m 4
 138 755.111328125 277.6796875 962 450 962 c 4
 622.3203125 962 762 755.111328125 762 500 c 4
 762 244.888671875 622.3203125 38 450 38 c 4
 277.6796875 38 138 244.888671875 138 500 c 4
EndSplineSet
Fore
SplineSet
88 500 m 0xfc
 88 766.016576167 233.784460713 1012 450 1012 c 0
 666.215196036 1012 812 766.015927678 812 500 c 0
 812 233.983423833 666.215539287 -12 450 -12 c 0
 233.784803964 -12 88 233.984072322 88 500 c 0xfc
188 500 m 0
 188 255.793271428 321.574571036 88 450 88 c 0
 578.425085713 88 712 255.793919917 712 500 c 0
 712 744.206728572 578.425428964 912 450 912 c 0
 321.574914287 912 188 744.206080083 188 500 c 0
927 1000 m 1
 977 1000 l 1
 977 650 l 1xfd
 1099 650 l 1
 1099 600 l 1
 1099 550 l 1xfe
 977 550 l 1
 977 450 l 1xfd
 1099 450 l 1
 1099 400 l 1
 1099 350 l 1xfe
 977 350 l 1
 977 0 l 1
 927 0 l 1
 877 0 l 1
 877 1000 l 1xfd
 927 1000 l 1
EndSplineSet
EndChar

StartChar: aibu
Encoding: 28 60282 29
Width: 1200
VWidth: 0
Flags: W
HStem: 0 200<130.934 200 550 650> 0 100<200 550 650 1099> 288 100<384.535 815.465> 912 100<384.535 815.465>
VStem: 100 100<100 200 522.959 777.041> 550 100<100 200> 1012 100<536.852 763.148>
LayerCount: 2
Back
SplineSet
600 200 m 1
 600 50 l 1049
138 650 m 0
 138 869.874956837 427.6796875 962 600 962 c 0
 772.3203125 962 1062 869.874956837 1062 650 c 0
 1062 430.125043163 772.3203125 338 600 338 c 0
 427.6796875 338 138 430.125043163 138 650 c 0
1099 50 m 16
 782.666666667 50 466.333333333 50 150 50 c 1
 150 200 l 1049
EndSplineSet
Fore
SplineSet
130.627341571 3.23020176657 m 0xbe
 117.537390027 11.2517222868 103.517988075 29.4286990966 100 44.0820686403 c 2
 100 200 l 1
 150 200 l 1
 200 200 l 1xbe
 200 100 l 1
 550 100 l 1x7e
 550 200 l 1
 600 200 l 1
 650 200 l 1xbe
 650 100 l 1
 1099 100 l 1
 1099 50 l 1
 1099 0 l 1x7e
 150.000000001 0 l 2
 146.110203472 0 137.126541191 1.66988396703 130.627341571 3.23020176657 c 0xbe
88 650 m 0
 88 921.217867057 425.278483533 1012 600 1012 c 0
 774.722877853 1012 1112 921.218525268 1112 650 c 0
 1112 378.782132943 774.721516467 288 600 288 c 0
 425.277122147 288 88 378.781474732 88 650 c 0
188 650 m 0
 188 481.468611594 430.082252853 388 600 388 c 0
 769.919108533 388 1012 481.467953383 1012 650 c 0
 1012 818.531388406 769.917747147 912 600 912 c 0
 430.080891467 912 188 818.532046617 188 650 c 0
EndSplineSet
EndChar

StartChar: denpabu
Encoding: 31 60287 32
Width: 1200
VWidth: 0
Flags: W
HStem: -12 100<422.665 777.335> 912 100<422.665 777.335>
VStem: 88 100<322.688 677.312> 1012 100<322.688 677.312>
LayerCount: 2
Back
SplineSet
138 500 m 4
 138 755.111111111 344.833846154 962 600 962 c 4
 855.166153846 962 1062 755.111111111 1062 500 c 4
 1062 244.888888889 855.166153846 38 600 38 c 4
 344.833846154 38 138 244.888888889 138 500 c 4
EndSplineSet
Fore
SplineSet
88 500 m 0
 88 782.716251322 317.222081439 1012 600 1012 c 0
 882.777629621 1012 1112 782.716537646 1112 500 c 0
 1112 217.283748678 882.777918561 -12 600 -12 c 0
 317.222370379 -12 88 217.283462354 88 500 c 0
188 500 m 0
 188 272.494315424 372.445321929 88 600 88 c 0
 827.554389131 88 1012 272.4940291 1012 500 c 0
 1012 727.505684576 827.554678071 912 600 912 c 0
 372.445610869 912 188 727.5059709 188 500 c 0
EndSplineSet
EndChar

StartChar: ebu.ce.2
Encoding: 42 -1 33
Width: 0
VWidth: 0
Flags: W
HStem: 0 21G<1000 1100> 450 100<875 1000>
VStem: 875 225<450 550> 1000 100<0 450 550 1000>
AnchorPoint: "Above" 600 0 mark 0
LayerCount: 2
Back
SplineSet
875 500 m 25
 1050 500 l 1041
1050 1000 m 25
 1050 0 l 1049
EndSplineSet
Fore
SplineSet
1050 1000 m 1xd0
 1100 1000 l 1
 1100 0 l 1
 1050 0 l 1
 1000 0 l 1
 1000 450 l 1xd0
 875 450 l 1
 875 500 l 1
 875 550 l 1xe0
 1000 550 l 1
 1000 1000 l 1
 1050 1000 l 1xd0
EndSplineSet
EndChar

StartChar: obu.ce.2
Encoding: 43 -1 34
Width: 0
VWidth: 0
Flags: W
HStem: 0 21G<877 977> 450 100<977 1099>
VStem: 877 222<450 550> 877 100<0 450 550 1000>
AnchorPoint: "Above" 600 0 mark 0
LayerCount: 2
Back
SplineSet
1099 500 m 29
 927 500 l 1045
927 1000 m 29
 927 0 l 1053
EndSplineSet
Fore
SplineSet
927 1000 m 1xd0
 977 1000 l 1
 977 550 l 1xd0
 1099 550 l 1
 1099 500 l 1
 1099 450 l 1xe0
 977 450 l 1
 977 0 l 1
 927 0 l 1
 877 0 l 1
 877 1000 l 1
 927 1000 l 1xd0
EndSplineSet
EndChar

StartChar: NameMe.44
Encoding: 44 -1 35
Width: 2000
VWidth: 0
HStem: 0 100<200 1099>
VStem: 100 100<100 250>
LayerCount: 2
Back
SplineSet
1099 50 m 29
 150 50 l 29
 150 250 l 1053
EndSplineSet
Fore
SplineSet
1099 50 m 1
 1099 0 l 1
 150 0 l 2
 119.734924289 0 100 28.5401913347 100 50 c 2
 100 250 l 1
 150 250 l 1
 200 250 l 1
 200 100 l 1
 1099 100 l 1
 1099 50 l 1
EndSplineSet
EndChar

StartChar: my.ce.1
Encoding: 32 -1 36
Width: 1200
VWidth: 0
Flags: WO
HStem: 0 100<200 700> 450 100<200 700> 900 100<200 700>
VStem: 100 100<100 450 550 900> 700 100<100 450 550 900>
CounterMasks: 1 e0
AnchorPoint: "Above" 600 0 basechar 0
LayerCount: 2
Back
SplineSet
150 500 m 29
 750 500 l 1053
150 950 m 29
 750 950 l 29
 750 50 l 29
 150 50 l 29
 150 950 l 29
EndSplineSet
Fore
SplineSet
150 1000 m 2
 750 1000 l 2
 780.265075711 1000 800 971.459808665 800 950 c 2
 800 50 l 2
 800 19.7349242889 771.459808665 0 750 0 c 2
 150 0 l 2
 119.734924289 0 100 28.5401913347 100 50 c 2
 100 950 l 2
 100 980.265075711 128.540191335 1000 150 1000 c 2
200 450 m 1
 200 100 l 1
 700 100 l 1
 700 450 l 1
 200 450 l 1
200 550 m 1
 700 550 l 1
 700 900 l 1
 200 900 l 1
 200 550 l 1
EndSplineSet
EndChar

StartChar: my.ci.1
Encoding: 64 -1 37
Width: 1200
VWidth: 0
Flags: W
HStem: 300 100<200 1000> 600 100<200 1000> 900 100<200 1000>
VStem: 100 100<400 600 700 900> 1000 100<400 600 700 900>
CounterMasks: 1 e0
AnchorPoint: "Above" 600 0 basechar 0
LayerCount: 2
Back
SplineSet
150 950 m 29
 1050 950 l 29
 1050 350 l 29
 150 350 l 29
 150 950 l 29
150 650 m 29
 1050 650 l 1053
EndSplineSet
Fore
SplineSet
150 1000 m 2
 1050 1000 l 2
 1080.26507571 1000 1100 971.459808665 1100 950 c 2
 1100 350 l 2
 1100 319.734924289 1071.45980867 300 1050 300 c 2
 150 300 l 2
 119.734924289 300 100 328.540191335 100 350 c 2
 100 950 l 2
 100 980.265075711 128.540191335 1000 150 1000 c 2
1000 700 m 1
 1000 900 l 1
 200 900 l 1
 200 700 l 1
 1000 700 l 1
1000 600 m 1
 200 600 l 1
 200 400 l 1
 1000 400 l 1
 1000 600 l 1
EndSplineSet
EndChar

StartChar: my.cec.1
Encoding: 96 -1 38
Width: 1200
VWidth: 0
Flags: W
HStem: 550 100<200 700> 725 100<200 700> 900 100<200 700>
VStem: 100 100<650 725 825 900> 700 100<650 725 825 900>
CounterMasks: 1 e0
AnchorPoint: "Above" 600 0 basechar 0
LayerCount: 2
Back
SplineSet
150 950 m 29
 750 950 l 29
 750 600 l 29
 150 600 l 29
 150 950 l 29
150 775 m 29
 750 775 l 1053
EndSplineSet
Fore
SplineSet
150 1000 m 2
 750 1000 l 2
 780.265075711 1000 800 971.459808665 800 950 c 2
 800 600 l 2
 800 569.734924289 771.459808665 550 750 550 c 2
 150 550 l 2
 119.734924289 550 100 578.540191335 100 600 c 2
 100 950 l 2
 100 980.265075711 128.540191335 1000 150 1000 c 2
700 825 m 1
 700 900 l 1
 200 900 l 1
 200 825 l 1
 700 825 l 1
700 725 m 1
 200 725 l 1
 200 650 l 1
 700 650 l 1
 700 725 l 1
EndSplineSet
EndChar

StartChar: my.cec.3
Encoding: 128 -1 39
Width: 0
VWidth: 0
Flags: W
HStem: 0 100<200 999> 175 100<200 999> 350 100<200 999>
VStem: 100 100<100 175 275 350> 999 100<100 175 275 350>
CounterMasks: 1 e0
AnchorPoint: "Above" 600 0 mark 0
LayerCount: 2
Back
SplineSet
150 400 m 5
 1049 400 l 29
 1049 50 l 29
 150 50 l 5
 150 400 l 5
150 225 m 5
 1049 225 l 1053
EndSplineSet
Fore
SplineSet
150 450 m 2
 1049 450 l 2
 1079.26507571 450 1099 421.459808665 1099 400 c 2
 1099 50 l 2
 1099 19.7349242889 1070.45980867 0 1049 0 c 2
 150 0 l 2
 119.734924289 0 100 28.5401913347 100 50 c 2
 100 400 l 2
 100 430.265075711 128.540191335 450 150 450 c 2
999 275 m 1
 999 350 l 1
 200 350 l 1
 200 275 l 1
 999 275 l 1
999 175 m 1
 200 175 l 1
 200 100 l 1
 999 100 l 1
 999 175 l 1
EndSplineSet
EndChar

StartChar: ebu.cec.2
Encoding: 106 -1 40
Width: 0
VWidth: 0
Flags: W
HStem: 725 100<877 999>
VStem: 877 222<725 825> 999 100<550 725 825 1000>
AnchorPoint: "Above" 600 0 mark 0
LayerCount: 2
Back
SplineSet
877 775 m 29
 1049 775 l 1045
1049 1000 m 5
 1049 550 l 1053
EndSplineSet
Fore
SplineSet
1049 1000 m 1xa0
 1099 1000 l 1
 1099 550 l 1
 1049 550 l 1
 999 550 l 1
 999 725 l 1xa0
 877 725 l 1
 877 775 l 1
 877 825 l 1xc0
 999 825 l 1
 999 1000 l 1
 1049 1000 l 1xa0
EndSplineSet
EndChar

StartChar: ly.cec.3
Encoding: 137 -1 41
Width: 0
VWidth: 0
Flags: W
HStem: 0 100<100 999> 175 100<200 999> 350 100<200 1099>
VStem: 100 100<275 350> 999 100<100 175>
CounterMasks: 1 e0
AnchorPoint: "Above" 600 0 mark 0
LayerCount: 2
Back
SplineSet
1099 400 m 29
 150 400 l 5
 150 225 l 5
 1049 225 l 29
 1049 50 l 5
 100 50 l 1053
EndSplineSet
Fore
SplineSet
1099 400 m 1
 1099 350 l 1
 200 350 l 1
 200 275 l 1
 1049 275 l 2
 1079.26507571 275 1099 246.459808665 1099 225 c 2
 1099 50 l 2
 1099 19.7349242889 1070.45980867 0 1049 0 c 2
 100 0 l 1
 100 50 l 1
 100 100 l 1
 999 100 l 1
 999 175 l 1
 150 175 l 2
 128.540191335 175 100 194.734924289 100 225 c 2
 100 400 l 2
 100 421.459808665 119.734924289 450 150 450 c 2
 1099 450 l 1
 1099 400 l 1
EndSplineSet
EndChar

StartChar: by.ci.1
Encoding: 66 -1 42
Width: 1200
VWidth: 0
Flags: W
HStem: 300 100<100 1000> 600 100<100 1000> 900 100<100 1000>
VStem: 1000 100<400 600 700 900>
CounterMasks: 1 e0
AnchorPoint: "Above" 600 0 basechar 0
LayerCount: 2
Back
SplineSet
100 350 m 25
 1050 350 l 25
 1050 950 l 1
 100 950 l 1049
100 650 m 25
 1050 650 l 1049
EndSplineSet
Fore
SplineSet
100 650 m 1
 100 700 l 1
 1000 700 l 1
 1000 900 l 1
 100 900 l 1
 100 950 l 1
 100 1000 l 1
 1050 1000 l 2
 1071.45980867 1000 1100 980.265075711 1100 950 c 2
 1100 350 l 2
 1100 328.540191335 1080.26507571 300 1050 300 c 2
 100 300 l 1
 100 350 l 1
 100 400 l 1
 1000 400 l 1
 1000 600 l 1
 100 600 l 1
 100 650 l 1
EndSplineSet
EndChar

StartChar: ibu.ci.2
Encoding: 76 -1 43
Width: 0
VWidth: 0
Flags: W
HStem: 0 200<100.513 200>
VStem: 100 100<100 200>
AnchorPoint: "Above" 600 0 mark 0
LayerCount: 2
Back
SplineSet
1099 50 m 29
 150 50 l 29
 150 200 l 1053
EndSplineSet
Fore
SplineSet
1099 50 m 1
 1099 0 l 1
 150 0 l 2
 119.734924289 0 100 28.5401913347 100 50 c 2
 100 200 l 1
 150 200 l 1
 200 200 l 1
 200 100 l 1
 1099 100 l 1
 1099 50 l 1
EndSplineSet
EndChar

StartChar: my.cic.1
Encoding: 160 -1 44
Width: 1200
VWidth: 0
Flags: W
HStem: 300 100<200 450> 600 100<200 450> 900 100<200 450>
VStem: 100 100<400 600 700 900> 450 100<400 600 700 900>
CounterMasks: 1 e0
AnchorPoint: "Above" 600 0 basechar 0
LayerCount: 2
Back
SplineSet
150 950 m 1
 1049 950 l 1
 1049 675 l 25
 150 675 l 1
 150 950 l 1
150 817 m 1
 1049 817 l 1049
EndSplineSet
Fore
SplineSet
150 1000 m 2
 500 1000 l 2
 530.265075711 1000 550 971.459808665 550 950 c 2
 550 350 l 2
 550 319.734924289 521.459808665 300 500 300 c 2
 150 300 l 2
 119.734924289 300 100 328.540191335 100 350 c 2
 100 950 l 2
 100 980.265075711 128.540191335 1000 150 1000 c 2
450 700 m 1
 450 900 l 1
 200 900 l 1
 200 700 l 1
 450 700 l 1
450 600 m 1
 200 600 l 1
 200 400 l 1
 450 400 l 1
 450 600 l 1
EndSplineSet
EndChar

StartChar: my.cic.3
Encoding: 192 -1 45
Width: 0
VWidth: 0
Flags: W
HStem: 0 100<750 1000> 450 100<750 1000> 900 100<750 1000>
VStem: 650 100<100 450 550 900> 1000 100<100 450 550 900>
CounterMasks: 1 e0
AnchorPoint: "Above" 600 0 mark 0
LayerCount: 2
Back
SplineSet
700 950 m 5
 1050 950 l 29
 1050 50 l 5
 700 50 l 5
 700 950 l 5
700 500 m 5
 1050 500 l 1053
EndSplineSet
Fore
SplineSet
700 1000 m 2
 1050 1000 l 2
 1080.26507571 1000 1100 971.459808665 1100 950 c 2
 1100 50 l 2
 1100 19.7349242889 1071.45980867 0 1050 0 c 2
 700 0 l 2
 669.734924289 0 650 28.5401913347 650 50 c 2
 650 950 l 2
 650 980.265075711 678.540191335 1000 700 1000 c 2
1000 550 m 1
 1000 900 l 1
 750 900 l 1
 750 550 l 1
 1000 550 l 1
1000 450 m 1
 750 450 l 1
 750 100 l 1
 1000 100 l 1
 1000 450 l 1
EndSplineSet
EndChar

StartChar: my.cce.2
Encoding: 256 -1 47
Width: 0
VWidth: 0
Flags: W
HStem: 0 100<200 700> 175 100<200 700> 350 100<200 700>
VStem: 100 100<100 175 275 350> 700 100<100 175 275 350>
CounterMasks: 1 e0
AnchorPoint: "Above" 600 0 mark 0
LayerCount: 2
Back
SplineSet
150 400 m 5
 750 400 l 29
 750 50 l 29
 150 50 l 5
 150 400 l 5
150 225 m 5
 750 225 l 1053
EndSplineSet
Fore
SplineSet
150 450 m 2
 750 450 l 2
 780.265075711 450 800 421.459808665 800 400 c 2
 800 50 l 2
 800 19.7349242889 771.459808665 0 750 0 c 2
 150 0 l 2
 119.734924289 0 100 28.5401913347 100 50 c 2
 100 400 l 2
 100 430.265075711 128.540191335 450 150 450 c 2
700 275 m 1
 700 350 l 1
 200 350 l 1
 200 275 l 1
 700 275 l 1
700 175 m 1
 200 175 l 1
 200 100 l 1
 700 100 l 1
 700 175 l 1
EndSplineSet
EndChar

StartChar: ibu.cic2
Encoding: 172 -1 48
Width: 0
VWidth: 0
Flags: W
HStem: 0 200<100.513 200>
VStem: 100 100<100 200>
AnchorPoint: "Above" 600 0 mark 0
LayerCount: 2
Back
SplineSet
550 50 m 29
 150 50 l 5
 150 200 l 1053
EndSplineSet
Fore
SplineSet
550 50 m 1
 550 0 l 1
 150 0 l 2
 119.734924289 0 100 28.5401913347 100 50 c 2
 100 200 l 1
 150 200 l 1
 200 200 l 1
 200 100 l 1
 550 100 l 1
 550 50 l 1
EndSplineSet
EndChar

StartChar: my.cci.1
Encoding: 288 -1 50
Width: 1200
VWidth: 0
Flags: W
HStem: 300 100<200 450> 600 100<200 450> 900 100<200 450>
VStem: 100 100<400 600 700 900> 450 100<400 600 700 900>
CounterMasks: 1 e0
AnchorPoint: "Above" 600 0 basechar 0
LayerCount: 2
Back
SplineSet
150 950 m 25
 500 950 l 25
 500 350 l 25
 150 350 l 25
 150 950 l 25
150 650 m 25
 500 650 l 1025
EndSplineSet
Fore
SplineSet
150 1000 m 2
 500 1000 l 2
 530.265075711 1000 550 971.459808665 550 950 c 2
 550 350 l 2
 550 319.734924289 521.459808665 300 500 300 c 2
 150 300 l 2
 119.734924289 300 100 328.540191335 100 350 c 2
 100 950 l 2
 100 980.265075711 128.540191335 1000 150 1000 c 2
450 700 m 1
 450 900 l 1
 200 900 l 1
 200 700 l 1
 450 700 l 1
450 600 m 1
 200 600 l 1
 200 400 l 1
 450 400 l 1
 450 600 l 1
EndSplineSet
EndChar

StartChar: my.cci.2
Encoding: 320 -1 51
Width: 0
VWidth: 0
Flags: W
HStem: 300 100<750 999> 600 100<750 999> 900 100<750 999>
VStem: 650 100<400 600 700 900> 999 100<400 600 700 900>
CounterMasks: 1 e0
AnchorPoint: "Above" 600 0 mark 0
LayerCount: 2
Back
SplineSet
700 950 m 29
 1049 950 l 29
 1049 350 l 29
 700 350 l 29
 700 950 l 29
700 650 m 4
 1049 650 l 1029
EndSplineSet
Fore
SplineSet
700 1000 m 2
 1049 1000 l 2
 1079.26507571 1000 1099 971.459808665 1099 950 c 2
 1099 350 l 2
 1099 319.734924289 1070.45980867 300 1049 300 c 2
 700 300 l 2
 669.734924289 300 650 328.540191335 650 350 c 2
 650 950 l 2
 650 980.265075711 678.540191335 1000 700 1000 c 2
999 700 m 1
 999 900 l 1
 750 900 l 1
 750 700 l 1
 999 700 l 1
999 600 m 1
 750 600 l 1
 750 400 l 1
 999 400 l 1
 999 600 l 1
EndSplineSet
EndChar

StartChar: NameMe.289
Encoding: 289 -1 53
Width: 1200
VWidth: 0
Flags: W
HStem: 300 100<200 450> 600 100<200 450> 900 100<200 450>
VStem: 100 100<400 600 700 900> 450 100<400 600 700 900>
CounterMasks: 1 e0
AnchorPoint: "Above" 600 0 basechar 0
LayerCount: 2
Fore
SplineSet
150 1000 m 2
 500 1000 l 2
 530.265075711 1000 550 971.459808665 550 950 c 2
 550 350 l 2
 550 319.734924289 521.459808665 300 500 300 c 2
 150 300 l 2
 119.734924289 300 100 328.540191335 100 350 c 2
 100 950 l 2
 100 980.265075711 128.540191335 1000 150 1000 c 2
450 700 m 1
 450 900 l 1
 200 900 l 1
 200 700 l 1
 450 700 l 1
450 600 m 1
 200 600 l 1
 200 400 l 1
 450 400 l 1
 450 600 l 1
EndSplineSet
EndChar

StartChar: NameMe.290
Encoding: 290 -1 54
Width: 1200
VWidth: 0
Flags: W
HStem: 300 100<200 450> 600 100<200 450> 900 100<200 450>
VStem: 100 100<400 600 700 900> 450 100<400 600 700 900>
CounterMasks: 1 e0
AnchorPoint: "Above" 600 0 basechar 0
LayerCount: 2
Fore
SplineSet
150 1000 m 2
 500 1000 l 2
 530.265075711 1000 550 971.459808665 550 950 c 2
 550 350 l 2
 550 319.734924289 521.459808665 300 500 300 c 2
 150 300 l 2
 119.734924289 300 100 328.540191335 100 350 c 2
 100 950 l 2
 100 980.265075711 128.540191335 1000 150 1000 c 2
450 700 m 1
 450 900 l 1
 200 900 l 1
 200 700 l 1
 450 700 l 1
450 600 m 1
 200 600 l 1
 200 400 l 1
 450 400 l 1
 450 600 l 1
EndSplineSet
EndChar

StartChar: NameMe.291
Encoding: 291 -1 55
Width: 1200
VWidth: 0
Flags: W
HStem: 300 100<200 450> 600 100<200 450> 900 100<200 450>
VStem: 100 100<400 600 700 900> 450 100<400 600 700 900>
CounterMasks: 1 e0
AnchorPoint: "Above" 600 0 basechar 0
LayerCount: 2
Fore
SplineSet
150 1000 m 2
 500 1000 l 2
 530.265075711 1000 550 971.459808665 550 950 c 2
 550 350 l 2
 550 319.734924289 521.459808665 300 500 300 c 2
 150 300 l 2
 119.734924289 300 100 328.540191335 100 350 c 2
 100 950 l 2
 100 980.265075711 128.540191335 1000 150 1000 c 2
450 700 m 1
 450 900 l 1
 200 900 l 1
 200 700 l 1
 450 700 l 1
450 600 m 1
 200 600 l 1
 200 400 l 1
 450 400 l 1
 450 600 l 1
EndSplineSet
EndChar

StartChar: NameMe.292
Encoding: 292 -1 56
Width: 1200
VWidth: 0
Flags: W
HStem: 300 100<200 450> 600 100<200 450> 900 100<200 450>
VStem: 100 100<400 600 700 900> 450 100<400 600 700 900>
CounterMasks: 1 e0
AnchorPoint: "Above" 600 0 basechar 0
LayerCount: 2
Fore
SplineSet
150 1000 m 2
 500 1000 l 2
 530.265075711 1000 550 971.459808665 550 950 c 2
 550 350 l 2
 550 319.734924289 521.459808665 300 500 300 c 2
 150 300 l 2
 119.734924289 300 100 328.540191335 100 350 c 2
 100 950 l 2
 100 980.265075711 128.540191335 1000 150 1000 c 2
450 700 m 1
 450 900 l 1
 200 900 l 1
 200 700 l 1
 450 700 l 1
450 600 m 1
 200 600 l 1
 200 400 l 1
 450 400 l 1
 450 600 l 1
EndSplineSet
EndChar

StartChar: NameMe.293
Encoding: 293 -1 57
Width: 1200
VWidth: 0
Flags: W
HStem: 300 100<200 450> 600 100<200 450> 900 100<200 450>
VStem: 100 100<400 600 700 900> 450 100<400 600 700 900>
CounterMasks: 1 e0
AnchorPoint: "Above" 600 0 basechar 0
LayerCount: 2
Fore
SplineSet
150 1000 m 2
 500 1000 l 2
 530.265075711 1000 550 971.459808665 550 950 c 2
 550 350 l 2
 550 319.734924289 521.459808665 300 500 300 c 2
 150 300 l 2
 119.734924289 300 100 328.540191335 100 350 c 2
 100 950 l 2
 100 980.265075711 128.540191335 1000 150 1000 c 2
450 700 m 1
 450 900 l 1
 200 900 l 1
 200 700 l 1
 450 700 l 1
450 600 m 1
 200 600 l 1
 200 400 l 1
 450 400 l 1
 450 600 l 1
EndSplineSet
EndChar

StartChar: NameMe.294
Encoding: 294 -1 58
Width: 1200
VWidth: 0
Flags: W
HStem: 300 100<200 450> 600 100<200 450> 900 100<200 450>
VStem: 100 100<400 600 700 900> 450 100<400 600 700 900>
CounterMasks: 1 e0
AnchorPoint: "Above" 600 0 basechar 0
LayerCount: 2
Fore
SplineSet
150 1000 m 2
 500 1000 l 2
 530.265075711 1000 550 971.459808665 550 950 c 2
 550 350 l 2
 550 319.734924289 521.459808665 300 500 300 c 2
 150 300 l 2
 119.734924289 300 100 328.540191335 100 350 c 2
 100 950 l 2
 100 980.265075711 128.540191335 1000 150 1000 c 2
450 700 m 1
 450 900 l 1
 200 900 l 1
 200 700 l 1
 450 700 l 1
450 600 m 1
 200 600 l 1
 200 400 l 1
 450 400 l 1
 450 600 l 1
EndSplineSet
EndChar

StartChar: NameMe.295
Encoding: 295 -1 59
Width: 1200
VWidth: 0
Flags: W
HStem: 300 100<200 450> 600 100<200 450> 900 100<200 450>
VStem: 100 100<400 600 700 900> 450 100<400 600 700 900>
CounterMasks: 1 e0
AnchorPoint: "Above" 600 0 basechar 0
LayerCount: 2
Fore
SplineSet
150 1000 m 2
 500 1000 l 2
 530.265075711 1000 550 971.459808665 550 950 c 2
 550 350 l 2
 550 319.734924289 521.459808665 300 500 300 c 2
 150 300 l 2
 119.734924289 300 100 328.540191335 100 350 c 2
 100 950 l 2
 100 980.265075711 128.540191335 1000 150 1000 c 2
450 700 m 1
 450 900 l 1
 200 900 l 1
 200 700 l 1
 450 700 l 1
450 600 m 1
 200 600 l 1
 200 400 l 1
 450 400 l 1
 450 600 l 1
EndSplineSet
EndChar

StartChar: NameMe.296
Encoding: 296 -1 60
Width: 1200
VWidth: 0
Flags: W
HStem: 300 100<200 450> 600 100<200 450> 900 100<200 450>
VStem: 100 100<400 600 700 900> 450 100<400 600 700 900>
CounterMasks: 1 e0
AnchorPoint: "Above" 600 0 basechar 0
LayerCount: 2
Fore
SplineSet
150 1000 m 2
 500 1000 l 2
 530.265075711 1000 550 971.459808665 550 950 c 2
 550 350 l 2
 550 319.734924289 521.459808665 300 500 300 c 2
 150 300 l 2
 119.734924289 300 100 328.540191335 100 350 c 2
 100 950 l 2
 100 980.265075711 128.540191335 1000 150 1000 c 2
450 700 m 1
 450 900 l 1
 200 900 l 1
 200 700 l 1
 450 700 l 1
450 600 m 1
 200 600 l 1
 200 400 l 1
 450 400 l 1
 450 600 l 1
EndSplineSet
EndChar

StartChar: NameMe.297
Encoding: 297 -1 61
Width: 1200
VWidth: 0
Flags: W
HStem: 300 100<200 450> 600 100<200 450> 900 100<200 450>
VStem: 100 100<400 600 700 900> 450 100<400 600 700 900>
CounterMasks: 1 e0
AnchorPoint: "Above" 600 0 basechar 0
LayerCount: 2
Fore
SplineSet
150 1000 m 2
 500 1000 l 2
 530.265075711 1000 550 971.459808665 550 950 c 2
 550 350 l 2
 550 319.734924289 521.459808665 300 500 300 c 2
 150 300 l 2
 119.734924289 300 100 328.540191335 100 350 c 2
 100 950 l 2
 100 980.265075711 128.540191335 1000 150 1000 c 2
450 700 m 1
 450 900 l 1
 200 900 l 1
 200 700 l 1
 450 700 l 1
450 600 m 1
 200 600 l 1
 200 400 l 1
 450 400 l 1
 450 600 l 1
EndSplineSet
EndChar

StartChar: NameMe.304
Encoding: 304 -1 62
Width: 1200
VWidth: 0
Flags: W
HStem: 300 100<200 450> 600 100<200 450> 900 100<200 450>
VStem: 100 100<400 600 700 900> 450 100<400 600 700 900>
CounterMasks: 1 e0
AnchorPoint: "Above" 600 0 basechar 0
LayerCount: 2
Fore
SplineSet
150 1000 m 2
 500 1000 l 2
 530.265075711 1000 550 971.459808665 550 950 c 2
 550 350 l 2
 550 319.734924289 521.459808665 300 500 300 c 2
 150 300 l 2
 119.734924289 300 100 328.540191335 100 350 c 2
 100 950 l 2
 100 980.265075711 128.540191335 1000 150 1000 c 2
450 700 m 1
 450 900 l 1
 200 900 l 1
 200 700 l 1
 450 700 l 1
450 600 m 1
 200 600 l 1
 200 400 l 1
 450 400 l 1
 450 600 l 1
EndSplineSet
EndChar

StartChar: NameMe.305
Encoding: 305 -1 63
Width: 1200
VWidth: 0
Flags: W
HStem: 300 100<200 450> 600 100<200 450> 900 100<200 450>
VStem: 100 100<400 600 700 900> 450 100<400 600 700 900>
CounterMasks: 1 e0
AnchorPoint: "Above" 600 0 basechar 0
LayerCount: 2
Fore
SplineSet
150 1000 m 2
 500 1000 l 2
 530.265075711 1000 550 971.459808665 550 950 c 2
 550 350 l 2
 550 319.734924289 521.459808665 300 500 300 c 2
 150 300 l 2
 119.734924289 300 100 328.540191335 100 350 c 2
 100 950 l 2
 100 980.265075711 128.540191335 1000 150 1000 c 2
450 700 m 1
 450 900 l 1
 200 900 l 1
 200 700 l 1
 450 700 l 1
450 600 m 1
 200 600 l 1
 200 400 l 1
 450 400 l 1
 450 600 l 1
EndSplineSet
EndChar

StartChar: NameMe.306
Encoding: 306 -1 64
Width: 1200
VWidth: 0
Flags: W
HStem: 300 100<200 450> 600 100<200 450> 900 100<200 450>
VStem: 100 100<400 600 700 900> 450 100<400 600 700 900>
CounterMasks: 1 e0
AnchorPoint: "Above" 600 0 basechar 0
LayerCount: 2
Fore
SplineSet
150 1000 m 2
 500 1000 l 2
 530.265075711 1000 550 971.459808665 550 950 c 2
 550 350 l 2
 550 319.734924289 521.459808665 300 500 300 c 2
 150 300 l 2
 119.734924289 300 100 328.540191335 100 350 c 2
 100 950 l 2
 100 980.265075711 128.540191335 1000 150 1000 c 2
450 700 m 1
 450 900 l 1
 200 900 l 1
 200 700 l 1
 450 700 l 1
450 600 m 1
 200 600 l 1
 200 400 l 1
 450 400 l 1
 450 600 l 1
EndSplineSet
EndChar

StartChar: NameMe.307
Encoding: 307 -1 65
Width: 1200
VWidth: 0
Flags: W
HStem: 300 100<200 450> 600 100<200 450> 900 100<200 450>
VStem: 100 100<400 600 700 900> 450 100<400 600 700 900>
CounterMasks: 1 e0
AnchorPoint: "Above" 600 0 basechar 0
LayerCount: 2
Fore
SplineSet
150 1000 m 2
 500 1000 l 2
 530.265075711 1000 550 971.459808665 550 950 c 2
 550 350 l 2
 550 319.734924289 521.459808665 300 500 300 c 2
 150 300 l 2
 119.734924289 300 100 328.540191335 100 350 c 2
 100 950 l 2
 100 980.265075711 128.540191335 1000 150 1000 c 2
450 700 m 1
 450 900 l 1
 200 900 l 1
 200 700 l 1
 450 700 l 1
450 600 m 1
 200 600 l 1
 200 400 l 1
 450 400 l 1
 450 600 l 1
EndSplineSet
EndChar

StartChar: NameMe.308
Encoding: 308 -1 66
Width: 1200
VWidth: 0
Flags: W
HStem: 300 100<200 450> 600 100<200 450> 900 100<200 450>
VStem: 100 100<400 600 700 900> 450 100<400 600 700 900>
CounterMasks: 1 e0
AnchorPoint: "Above" 600 0 basechar 0
LayerCount: 2
Fore
SplineSet
150 1000 m 2
 500 1000 l 2
 530.265075711 1000 550 971.459808665 550 950 c 2
 550 350 l 2
 550 319.734924289 521.459808665 300 500 300 c 2
 150 300 l 2
 119.734924289 300 100 328.540191335 100 350 c 2
 100 950 l 2
 100 980.265075711 128.540191335 1000 150 1000 c 2
450 700 m 1
 450 900 l 1
 200 900 l 1
 200 700 l 1
 450 700 l 1
450 600 m 1
 200 600 l 1
 200 400 l 1
 450 400 l 1
 450 600 l 1
EndSplineSet
EndChar

StartChar: gy.cci.1
Encoding: 309 -1 67
Width: 1200
VWidth: 0
Flags: W
AnchorPoint: "Above" 600 0 basechar 0
LayerCount: 2
Back
SplineSet
100 1000 m 5
 555.400390625 650 l 5
 100 300 l 1029
EndSplineSet
Fore
SplineSet
100 1000 m 1
 130.468690688 1039.64415326 l 1
 585.869081313 689.644153261 l 2
 613.540987578 668.376786363 608.170874146 627.495989024 585.869081313 610.355846739 c 2
 130.468690688 260.355846739 l 1
 100 300 l 1
 69.5313093119 339.644153261 l 1
 473.348948849 650 l 1
 69.5313093119 960.355846739 l 1
 100 1000 l 1
EndSplineSet
EndChar

StartChar: jy.cci.1
Encoding: 310 -1 68
Width: 1200
VWidth: 0
Flags: W
HStem: 600 100<100 549.551>
VStem: 275 100<707.623 1000>
AnchorPoint: "Above" 600 0 basechar 0
LayerCount: 2
Back
SplineSet
100 650 m 5
 549.55078125 650 l 1029
325 769 m 5
 325 1000 l 1029
100 299.30078125 m 5
 146.641601562 332.44140625 322.5390625 557.696289062 325 769 c 5
 322.793945312 565.583007812 491.043945312 330.26953125 549.55078125 300.700195312 c 1029
EndSplineSet
Fore
SplineSet
100 650 m 1
 100 700 l 1
 549.55078125 700 l 1
 549.55078125 650 l 1
 549.55078125 600 l 1
 100 600 l 1
 100 650 l 1
325 769 m 1
 275 769 l 1
 275 1000 l 1
 325 1000 l 1
 375 1000 l 1
 375 769 l 1
 325 769 l 1
560.827421521 323.012517227 m 1
 549.55078125 300.700195312 l 1
 526.997542658 256.075634485 l 1
 464.064107221 287.882172377 379.951560017 404.689638454 323.234994881 544.135954424 c 1
 263.745071952 403.508500499 175.180193584 291.382706116 128.960670003 258.541983513 c 1
 100 299.30078125 l 1
 71.0393299971 340.059578987 l 1
 101.873173626 361.968193074 272.818735982 582.001071172 275.003390648 769.582282868 c 0
 275.338096248 798.321141607 300.879065279 821.385251146 329.503076228 818.796810184 c 0
 355.16302456 816.476406469 375.275521455 794.134303158 374.997059916 768.457782522 c 0
 373.026098643 586.718401327 539.541499379 362.376068275 572.104061791 345.324839141 c 1
 560.827421521 323.012517227 l 1
EndSplineSet
EndChar

StartChar: yhy.cci.1
Encoding: 311 -1 69
Width: 1200
VWidth: 0
Flags: W
VStem: 100 100<534.946 1000> 450 100<300 765.054>
AnchorPoint: "Above" 600 0 basechar 0
LayerCount: 2
Back
SplineSet
150 1000 m 5
 150 350 l 5
 500 950 l 5
 500 300 l 1053
EndSplineSet
Fore
SplineSet
150 1000 m 1
 200 1000 l 1
 200 534.946028496 l 1
 456.811054955 975.193551276 l 2
 471.292715225 1000.0192546 504.891381671 1007.46397493 528.504370703 991.079202169 c 0
 542.742654439 981.199426118 550 962.084041171 550 950 c 2
 550 300 l 1
 500 300 l 1
 450 300 l 1
 450 765.053971504 l 1
 193.188945045 324.806448724 l 2
 185.688729653 311.948936623 170.471701694 301.456514363 153.922854272 300.154125403 c 0
 125.270640305 297.899205394 100 321.259192262 100 350 c 2
 100 1000 l 1
 150 1000 l 1
EndSplineSet
EndChar

StartChar: NameMe.312
Encoding: 312 -1 70
Width: 1200
VWidth: 0
Flags: W
HStem: 300 100<200 450> 600 100<200 450> 900 100<200 450>
VStem: 100 100<400 600 700 900> 450 100<400 600 700 900>
CounterMasks: 1 e0
AnchorPoint: "Above" 600 0 basechar 0
LayerCount: 2
Fore
SplineSet
150 1000 m 2
 500 1000 l 2
 530.265075711 1000 550 971.459808665 550 950 c 2
 550 350 l 2
 550 319.734924289 521.459808665 300 500 300 c 2
 150 300 l 2
 119.734924289 300 100 328.540191335 100 350 c 2
 100 950 l 2
 100 980.265075711 128.540191335 1000 150 1000 c 2
450 700 m 1
 450 900 l 1
 200 900 l 1
 200 700 l 1
 450 700 l 1
450 600 m 1
 200 600 l 1
 200 400 l 1
 450 400 l 1
 450 600 l 1
EndSplineSet
EndChar

StartChar: NameMe.313
Encoding: 313 -1 71
Width: 1200
VWidth: 0
Flags: W
HStem: 300 100<100 450> 600 100<200 450> 900 100<200 550>
VStem: 100 100<700 900> 450 100<400 600>
CounterMasks: 1 e0
AnchorPoint: "Above" 600 0 basechar 0
LayerCount: 2
Back
SplineSet
550 950 m 5
 150 950 l 5
 150 650 l 5
 500 650 l 5
 500 350 l 5
 100 350 l 1029
EndSplineSet
Fore
SplineSet
550 950 m 1
 550 900 l 1
 200 900 l 1
 200 700 l 1
 500 700 l 2
 530.265075711 700 550 671.459808665 550 650 c 2
 550 350 l 2
 550 319.734924289 521.459808665 300 500 300 c 2
 100 300 l 1
 100 350 l 1
 100 400 l 1
 450 400 l 1
 450 600 l 1
 150 600 l 2
 128.540191335 600 100 619.734924289 100 650 c 2
 100 950 l 2
 100 971.459808665 119.734924289 1000 150 1000 c 2
 550 1000 l 1
 550 950 l 1
EndSplineSet
EndChar

StartChar: abu.ci.2
Encoding: 78 -1 72
Width: 0
VWidth: 0
Flags: W
HStem: 0 200
AnchorPoint: "Above" 600 0 mark 0
LayerCount: 2
Back
SplineSet
600 150 m 29
 600 0 l 1053
1099 150 m 29
 100 150 l 1053
EndSplineSet
Fore
SplineSet
650 0 m 1
 650 100 l 1
 1099 100 l 1
 1099 150 l 1
 1099 200 l 1
 100 200 l 1
 100 150 l 1
 100 100 l 1
 550 100 l 1
 550 0 l 1
 650 0 l 1
EndSplineSet
EndChar

StartChar: NameMe.321
Encoding: 321 -1 74
Width: 0
VWidth: 0
Flags: W
HStem: 300 100<750 999> 600 100<750 999> 900 100<750 999>
VStem: 650 100<400 600 700 900> 999 100<400 600 700 900>
CounterMasks: 1 e0
AnchorPoint: "Above" 600 0 mark 0
LayerCount: 2
Fore
SplineSet
700 1000 m 2
 1049 1000 l 2
 1079.26507571 1000 1099 971.459808665 1099 950 c 2
 1099 350 l 2
 1099 319.734924289 1070.45980867 300 1049 300 c 2
 700 300 l 2
 669.734924289 300 650 328.540191335 650 350 c 2
 650 950 l 2
 650 980.265075711 678.540191335 1000 700 1000 c 2
999 700 m 1
 999 900 l 1
 750 900 l 1
 750 700 l 1
 999 700 l 1
999 600 m 1
 750 600 l 1
 750 400 l 1
 999 400 l 1
 999 600 l 1
EndSplineSet
EndChar

StartChar: NameMe.322
Encoding: 322 -1 75
Width: 0
VWidth: 0
Flags: W
HStem: 300 100<750 999> 600 100<750 999> 900 100<750 999>
VStem: 650 100<400 600 700 900> 999 100<400 600 700 900>
CounterMasks: 1 e0
AnchorPoint: "Above" 600 0 mark 0
LayerCount: 2
Fore
SplineSet
700 1000 m 2
 1049 1000 l 2
 1079.26507571 1000 1099 971.459808665 1099 950 c 2
 1099 350 l 2
 1099 319.734924289 1070.45980867 300 1049 300 c 2
 700 300 l 2
 669.734924289 300 650 328.540191335 650 350 c 2
 650 950 l 2
 650 980.265075711 678.540191335 1000 700 1000 c 2
999 700 m 1
 999 900 l 1
 750 900 l 1
 750 700 l 1
 999 700 l 1
999 600 m 1
 750 600 l 1
 750 400 l 1
 999 400 l 1
 999 600 l 1
EndSplineSet
EndChar

StartChar: NameMe.323
Encoding: 323 -1 76
Width: 0
VWidth: 0
Flags: W
HStem: 300 100<750 999> 600 100<750 999> 900 100<750 999>
VStem: 650 100<400 600 700 900> 999 100<400 600 700 900>
CounterMasks: 1 e0
AnchorPoint: "Above" 600 0 mark 0
LayerCount: 2
Fore
SplineSet
700 1000 m 2
 1049 1000 l 2
 1079.26507571 1000 1099 971.459808665 1099 950 c 2
 1099 350 l 2
 1099 319.734924289 1070.45980867 300 1049 300 c 2
 700 300 l 2
 669.734924289 300 650 328.540191335 650 350 c 2
 650 950 l 2
 650 980.265075711 678.540191335 1000 700 1000 c 2
999 700 m 1
 999 900 l 1
 750 900 l 1
 750 700 l 1
 999 700 l 1
999 600 m 1
 750 600 l 1
 750 400 l 1
 999 400 l 1
 999 600 l 1
EndSplineSet
EndChar

StartChar: NameMe.324
Encoding: 324 -1 77
Width: 0
VWidth: 0
Flags: W
HStem: 300 100<750 999> 600 100<750 999> 900 100<750 999>
VStem: 650 100<400 600 700 900> 999 100<400 600 700 900>
CounterMasks: 1 e0
AnchorPoint: "Above" 600 0 mark 0
LayerCount: 2
Fore
SplineSet
700 1000 m 2
 1049 1000 l 2
 1079.26507571 1000 1099 971.459808665 1099 950 c 2
 1099 350 l 2
 1099 319.734924289 1070.45980867 300 1049 300 c 2
 700 300 l 2
 669.734924289 300 650 328.540191335 650 350 c 2
 650 950 l 2
 650 980.265075711 678.540191335 1000 700 1000 c 2
999 700 m 1
 999 900 l 1
 750 900 l 1
 750 700 l 1
 999 700 l 1
999 600 m 1
 750 600 l 1
 750 400 l 1
 999 400 l 1
 999 600 l 1
EndSplineSet
EndChar

StartChar: NameMe.325
Encoding: 325 -1 78
Width: 0
VWidth: 0
Flags: W
HStem: 300 100<750 999> 600 100<750 999> 900 100<750 999>
VStem: 650 100<400 600 700 900> 999 100<400 600 700 900>
CounterMasks: 1 e0
AnchorPoint: "Above" 600 0 mark 0
LayerCount: 2
Fore
SplineSet
700 1000 m 2
 1049 1000 l 2
 1079.26507571 1000 1099 971.459808665 1099 950 c 2
 1099 350 l 2
 1099 319.734924289 1070.45980867 300 1049 300 c 2
 700 300 l 2
 669.734924289 300 650 328.540191335 650 350 c 2
 650 950 l 2
 650 980.265075711 678.540191335 1000 700 1000 c 2
999 700 m 1
 999 900 l 1
 750 900 l 1
 750 700 l 1
 999 700 l 1
999 600 m 1
 750 600 l 1
 750 400 l 1
 999 400 l 1
 999 600 l 1
EndSplineSet
EndChar

StartChar: NameMe.326
Encoding: 326 -1 79
Width: 0
VWidth: 0
Flags: W
HStem: 300 100<750 999> 600 100<750 999> 900 100<750 999>
VStem: 650 100<400 600 700 900> 999 100<400 600 700 900>
CounterMasks: 1 e0
AnchorPoint: "Above" 600 0 mark 0
LayerCount: 2
Fore
SplineSet
700 1000 m 2
 1049 1000 l 2
 1079.26507571 1000 1099 971.459808665 1099 950 c 2
 1099 350 l 2
 1099 319.734924289 1070.45980867 300 1049 300 c 2
 700 300 l 2
 669.734924289 300 650 328.540191335 650 350 c 2
 650 950 l 2
 650 980.265075711 678.540191335 1000 700 1000 c 2
999 700 m 1
 999 900 l 1
 750 900 l 1
 750 700 l 1
 999 700 l 1
999 600 m 1
 750 600 l 1
 750 400 l 1
 999 400 l 1
 999 600 l 1
EndSplineSet
EndChar

StartChar: NameMe.327
Encoding: 327 -1 80
Width: 0
VWidth: 0
Flags: W
HStem: 300 100<750 999> 600 100<750 999> 900 100<750 999>
VStem: 650 100<400 600 700 900> 999 100<400 600 700 900>
CounterMasks: 1 e0
AnchorPoint: "Above" 600 0 mark 0
LayerCount: 2
Fore
SplineSet
700 1000 m 2
 1049 1000 l 2
 1079.26507571 1000 1099 971.459808665 1099 950 c 2
 1099 350 l 2
 1099 319.734924289 1070.45980867 300 1049 300 c 2
 700 300 l 2
 669.734924289 300 650 328.540191335 650 350 c 2
 650 950 l 2
 650 980.265075711 678.540191335 1000 700 1000 c 2
999 700 m 1
 999 900 l 1
 750 900 l 1
 750 700 l 1
 999 700 l 1
999 600 m 1
 750 600 l 1
 750 400 l 1
 999 400 l 1
 999 600 l 1
EndSplineSet
EndChar

StartChar: NameMe.328
Encoding: 328 -1 81
Width: 0
VWidth: 0
Flags: W
HStem: 300 100<750 999> 600 100<750 999> 900 100<750 999>
VStem: 650 100<400 600 700 900> 999 100<400 600 700 900>
CounterMasks: 1 e0
AnchorPoint: "Above" 600 0 mark 0
LayerCount: 2
Fore
SplineSet
700 1000 m 2
 1049 1000 l 2
 1079.26507571 1000 1099 971.459808665 1099 950 c 2
 1099 350 l 2
 1099 319.734924289 1070.45980867 300 1049 300 c 2
 700 300 l 2
 669.734924289 300 650 328.540191335 650 350 c 2
 650 950 l 2
 650 980.265075711 678.540191335 1000 700 1000 c 2
999 700 m 1
 999 900 l 1
 750 900 l 1
 750 700 l 1
 999 700 l 1
999 600 m 1
 750 600 l 1
 750 400 l 1
 999 400 l 1
 999 600 l 1
EndSplineSet
EndChar

StartChar: NameMe.329
Encoding: 329 -1 82
Width: 0
VWidth: 0
Flags: W
HStem: 300 100<750 999> 600 100<750 999> 900 100<750 999>
VStem: 650 100<400 600 700 900> 999 100<400 600 700 900>
CounterMasks: 1 e0
AnchorPoint: "Above" 600 0 mark 0
LayerCount: 2
Fore
SplineSet
700 1000 m 2
 1049 1000 l 2
 1079.26507571 1000 1099 971.459808665 1099 950 c 2
 1099 350 l 2
 1099 319.734924289 1070.45980867 300 1049 300 c 2
 700 300 l 2
 669.734924289 300 650 328.540191335 650 350 c 2
 650 950 l 2
 650 980.265075711 678.540191335 1000 700 1000 c 2
999 700 m 1
 999 900 l 1
 750 900 l 1
 750 700 l 1
 999 700 l 1
999 600 m 1
 750 600 l 1
 750 400 l 1
 999 400 l 1
 999 600 l 1
EndSplineSet
EndChar

StartChar: NameMe.336
Encoding: 336 -1 83
Width: 0
VWidth: 0
Flags: W
HStem: 300 100<750 999> 600 100<750 999> 900 100<750 999>
VStem: 650 100<400 600 700 900> 999 100<400 600 700 900>
CounterMasks: 1 e0
AnchorPoint: "Above" 600 0 mark 0
LayerCount: 2
Fore
SplineSet
700 1000 m 2
 1049 1000 l 2
 1079.26507571 1000 1099 971.459808665 1099 950 c 2
 1099 350 l 2
 1099 319.734924289 1070.45980867 300 1049 300 c 2
 700 300 l 2
 669.734924289 300 650 328.540191335 650 350 c 2
 650 950 l 2
 650 980.265075711 678.540191335 1000 700 1000 c 2
999 700 m 1
 999 900 l 1
 750 900 l 1
 750 700 l 1
 999 700 l 1
999 600 m 1
 750 600 l 1
 750 400 l 1
 999 400 l 1
 999 600 l 1
EndSplineSet
EndChar

StartChar: NameMe.337
Encoding: 337 -1 84
Width: 0
VWidth: 0
Flags: W
HStem: 300 100<750 999> 600 100<750 999> 900 100<750 999>
VStem: 650 100<400 600 700 900> 999 100<400 600 700 900>
CounterMasks: 1 e0
AnchorPoint: "Above" 600 0 mark 0
LayerCount: 2
Fore
SplineSet
700 1000 m 2
 1049 1000 l 2
 1079.26507571 1000 1099 971.459808665 1099 950 c 2
 1099 350 l 2
 1099 319.734924289 1070.45980867 300 1049 300 c 2
 700 300 l 2
 669.734924289 300 650 328.540191335 650 350 c 2
 650 950 l 2
 650 980.265075711 678.540191335 1000 700 1000 c 2
999 700 m 1
 999 900 l 1
 750 900 l 1
 750 700 l 1
 999 700 l 1
999 600 m 1
 750 600 l 1
 750 400 l 1
 999 400 l 1
 999 600 l 1
EndSplineSet
EndChar

StartChar: NameMe.338
Encoding: 338 -1 85
Width: 0
VWidth: 0
Flags: W
HStem: 300 100<750 999> 600 100<750 999> 900 100<750 999>
VStem: 650 100<400 600 700 900> 999 100<400 600 700 900>
CounterMasks: 1 e0
AnchorPoint: "Above" 600 0 mark 0
LayerCount: 2
Fore
SplineSet
700 1000 m 2
 1049 1000 l 2
 1079.26507571 1000 1099 971.459808665 1099 950 c 2
 1099 350 l 2
 1099 319.734924289 1070.45980867 300 1049 300 c 2
 700 300 l 2
 669.734924289 300 650 328.540191335 650 350 c 2
 650 950 l 2
 650 980.265075711 678.540191335 1000 700 1000 c 2
999 700 m 1
 999 900 l 1
 750 900 l 1
 750 700 l 1
 999 700 l 1
999 600 m 1
 750 600 l 1
 750 400 l 1
 999 400 l 1
 999 600 l 1
EndSplineSet
EndChar

StartChar: NameMe.339
Encoding: 339 -1 86
Width: 0
VWidth: 0
Flags: W
HStem: 300 100<750 999> 600 100<750 999> 900 100<750 999>
VStem: 650 100<400 600 700 900> 999 100<400 600 700 900>
CounterMasks: 1 e0
AnchorPoint: "Above" 600 0 mark 0
LayerCount: 2
Fore
SplineSet
700 1000 m 2
 1049 1000 l 2
 1079.26507571 1000 1099 971.459808665 1099 950 c 2
 1099 350 l 2
 1099 319.734924289 1070.45980867 300 1049 300 c 2
 700 300 l 2
 669.734924289 300 650 328.540191335 650 350 c 2
 650 950 l 2
 650 980.265075711 678.540191335 1000 700 1000 c 2
999 700 m 1
 999 900 l 1
 750 900 l 1
 750 700 l 1
 999 700 l 1
999 600 m 1
 750 600 l 1
 750 400 l 1
 999 400 l 1
 999 600 l 1
EndSplineSet
EndChar

StartChar: NameMe.340
Encoding: 340 -1 87
Width: 0
VWidth: 0
Flags: W
HStem: 300 100<750 999> 600 100<750 999> 900 100<750 999>
VStem: 650 100<400 600 700 900> 999 100<400 600 700 900>
CounterMasks: 1 e0
AnchorPoint: "Above" 600 0 mark 0
LayerCount: 2
Fore
SplineSet
700 1000 m 2
 1049 1000 l 2
 1079.26507571 1000 1099 971.459808665 1099 950 c 2
 1099 350 l 2
 1099 319.734924289 1070.45980867 300 1049 300 c 2
 700 300 l 2
 669.734924289 300 650 328.540191335 650 350 c 2
 650 950 l 2
 650 980.265075711 678.540191335 1000 700 1000 c 2
999 700 m 1
 999 900 l 1
 750 900 l 1
 750 700 l 1
 999 700 l 1
999 600 m 1
 750 600 l 1
 750 400 l 1
 999 400 l 1
 999 600 l 1
EndSplineSet
EndChar

StartChar: NameMe.341
Encoding: 341 -1 88
Width: 0
VWidth: 0
Flags: W
HStem: 300 100<750 999> 600 100<750 999> 900 100<750 999>
VStem: 650 100<400 600 700 900> 999 100<400 600 700 900>
CounterMasks: 1 e0
AnchorPoint: "Above" 600 0 mark 0
LayerCount: 2
Fore
SplineSet
700 1000 m 2
 1049 1000 l 2
 1079.26507571 1000 1099 971.459808665 1099 950 c 2
 1099 350 l 2
 1099 319.734924289 1070.45980867 300 1049 300 c 2
 700 300 l 2
 669.734924289 300 650 328.540191335 650 350 c 2
 650 950 l 2
 650 980.265075711 678.540191335 1000 700 1000 c 2
999 700 m 1
 999 900 l 1
 750 900 l 1
 750 700 l 1
 999 700 l 1
999 600 m 1
 750 600 l 1
 750 400 l 1
 999 400 l 1
 999 600 l 1
EndSplineSet
EndChar

StartChar: NameMe.342
Encoding: 342 -1 89
Width: 0
VWidth: 0
Flags: W
HStem: 300 100<750 999> 600 100<750 999> 900 100<750 999>
VStem: 650 100<400 600 700 900> 999 100<400 600 700 900>
CounterMasks: 1 e0
AnchorPoint: "Above" 600 0 mark 0
LayerCount: 2
Fore
SplineSet
700 1000 m 2
 1049 1000 l 2
 1079.26507571 1000 1099 971.459808665 1099 950 c 2
 1099 350 l 2
 1099 319.734924289 1070.45980867 300 1049 300 c 2
 700 300 l 2
 669.734924289 300 650 328.540191335 650 350 c 2
 650 950 l 2
 650 980.265075711 678.540191335 1000 700 1000 c 2
999 700 m 1
 999 900 l 1
 750 900 l 1
 750 700 l 1
 999 700 l 1
999 600 m 1
 750 600 l 1
 750 400 l 1
 999 400 l 1
 999 600 l 1
EndSplineSet
EndChar

StartChar: NameMe.343
Encoding: 343 -1 90
Width: 0
VWidth: 0
Flags: W
HStem: 300 100<750 999> 600 100<750 999> 900 100<750 999>
VStem: 650 100<400 600 700 900> 999 100<400 600 700 900>
CounterMasks: 1 e0
AnchorPoint: "Above" 600 0 mark 0
LayerCount: 2
Fore
SplineSet
700 1000 m 2
 1049 1000 l 2
 1079.26507571 1000 1099 971.459808665 1099 950 c 2
 1099 350 l 2
 1099 319.734924289 1070.45980867 300 1049 300 c 2
 700 300 l 2
 669.734924289 300 650 328.540191335 650 350 c 2
 650 950 l 2
 650 980.265075711 678.540191335 1000 700 1000 c 2
999 700 m 1
 999 900 l 1
 750 900 l 1
 750 700 l 1
 999 700 l 1
999 600 m 1
 750 600 l 1
 750 400 l 1
 999 400 l 1
 999 600 l 1
EndSplineSet
EndChar

StartChar: NameMe.344
Encoding: 344 -1 91
Width: 0
VWidth: 0
Flags: W
HStem: 300 100<750 999> 600 100<750 999> 900 100<750 999>
VStem: 650 100<400 600 700 900> 999 100<400 600 700 900>
CounterMasks: 1 e0
AnchorPoint: "Above" 600 0 mark 0
LayerCount: 2
Fore
SplineSet
700 1000 m 2
 1049 1000 l 2
 1079.26507571 1000 1099 971.459808665 1099 950 c 2
 1099 350 l 2
 1099 319.734924289 1070.45980867 300 1049 300 c 2
 700 300 l 2
 669.734924289 300 650 328.540191335 650 350 c 2
 650 950 l 2
 650 980.265075711 678.540191335 1000 700 1000 c 2
999 700 m 1
 999 900 l 1
 750 900 l 1
 750 700 l 1
 999 700 l 1
999 600 m 1
 750 600 l 1
 750 400 l 1
 999 400 l 1
 999 600 l 1
EndSplineSet
EndChar

StartChar: NameMe.345
Encoding: 345 -1 92
Width: 0
VWidth: 0
Flags: W
HStem: 300 100<649 999> 600 100<749 999> 900 100<749 1099>
VStem: 649 100<700 900> 999 100<400 600>
CounterMasks: 1 e0
AnchorPoint: "Above" 600 0 mark 0
LayerCount: 2
Back
SplineSet
1099 950 m 5
 699 950 l 5
 699 650 l 5
 1049 650 l 5
 1049 350 l 5
 649 350 l 1029
EndSplineSet
Fore
SplineSet
1099 950 m 1
 1099 900 l 1
 749 900 l 1
 749 700 l 1
 1049 700 l 2
 1079.26507571 700 1099 671.459808665 1099 650 c 2
 1099 350 l 2
 1099 319.734924289 1070.45980867 300 1049 300 c 2
 649 300 l 1
 649 350 l 1
 649 400 l 1
 999 400 l 1
 999 600 l 1
 699 600 l 2
 677.540191335 600 649 619.734924289 649 650 c 2
 649 950 l 2
 649 971.459808665 668.734924289 1000 699 1000 c 2
 1099 1000 l 1
 1099 950 l 1
EndSplineSet
EndChar

StartChar: NameMe.33
Encoding: 33 -1 93
Width: 1200
VWidth: 0
Flags: W
HStem: 0 100<200 800> 450 100<150 800> 900 100<200 800>
VStem: 150 50<450 550>
CounterMasks: 1 e0
AnchorPoint: "Above" 600 0 basechar 0
LayerCount: 2
Back
SplineSet
150 500 m 29
 800 500 l 1053
800 50 m 13
 150 50 l 29
 150 950 l 29
 800 950 l 1045
EndSplineSet
Fore
SplineSet
150 500 m 1
 150 550 l 1
 800 550 l 1
 800 500 l 1
 800 450 l 1
 150 450 l 1
 150 500 l 1
800 50 m 1
 800 0 l 1
 150 0 l 2
 119.734924289 0 100 28.5401913347 100 50 c 2
 100 950 l 2
 100 980.265075711 128.540191335 1000 150 1000 c 2
 800 1000 l 1
 800 950 l 1
 800 900 l 1
 200 900 l 1
 200 100 l 1
 800 100 l 1
 800 50 l 1
EndSplineSet
EndChar

StartChar: NameMe.34
Encoding: 34 -1 94
Width: 1200
VWidth: 0
Flags: W
HStem: 0 100<200 700> 450 100<200 700> 900 100<200 700>
VStem: 100 100<100 450 550 900> 700 100<100 450 550 900>
AnchorPoint: "Above" 600 0 basechar 0
LayerCount: 2
Fore
SplineSet
150 1000 m 2
 750 1000 l 2
 780.265075711 1000 800 971.459808665 800 950 c 2
 800 50 l 2
 800 19.7349242889 771.459808665 0 750 0 c 2
 150 0 l 2
 119.734924289 0 100 28.5401913347 100 50 c 2
 100 950 l 2
 100 980.265075711 128.540191335 1000 150 1000 c 2
200 450 m 1
 200 100 l 1
 700 100 l 1
 700 450 l 1
 200 450 l 1
200 550 m 1
 700 550 l 1
 700 900 l 1
 200 900 l 1
 200 550 l 1
EndSplineSet
EndChar

StartChar: NameMe.35
Encoding: 35 -1 95
Width: 1200
VWidth: 0
Flags: W
HStem: 0 100<200 700> 450 100<200 700> 900 100<200 700>
VStem: 100 100<100 450 550 900> 700 100<100 450 550 900>
AnchorPoint: "Above" 600 0 basechar 0
LayerCount: 2
Fore
SplineSet
150 1000 m 2
 750 1000 l 2
 780.265075711 1000 800 971.459808665 800 950 c 2
 800 50 l 2
 800 19.7349242889 771.459808665 0 750 0 c 2
 150 0 l 2
 119.734924289 0 100 28.5401913347 100 50 c 2
 100 950 l 2
 100 980.265075711 128.540191335 1000 150 1000 c 2
200 450 m 1
 200 100 l 1
 700 100 l 1
 700 450 l 1
 200 450 l 1
200 550 m 1
 700 550 l 1
 700 900 l 1
 200 900 l 1
 200 550 l 1
EndSplineSet
EndChar

StartChar: NameMe.36
Encoding: 36 -1 96
Width: 1200
VWidth: 0
Flags: W
HStem: 0 100<200 700> 450 100<200 700> 900 100<200 700>
VStem: 100 100<100 450 550 900> 700 100<100 450 550 900>
AnchorPoint: "Above" 600 0 basechar 0
LayerCount: 2
Fore
SplineSet
150 1000 m 2
 750 1000 l 2
 780.265075711 1000 800 971.459808665 800 950 c 2
 800 50 l 2
 800 19.7349242889 771.459808665 0 750 0 c 2
 150 0 l 2
 119.734924289 0 100 28.5401913347 100 50 c 2
 100 950 l 2
 100 980.265075711 128.540191335 1000 150 1000 c 2
200 450 m 1
 200 100 l 1
 700 100 l 1
 700 450 l 1
 200 450 l 1
200 550 m 1
 700 550 l 1
 700 900 l 1
 200 900 l 1
 200 550 l 1
EndSplineSet
EndChar

StartChar: NameMe.37
Encoding: 37 -1 97
Width: 1200
VWidth: 0
Flags: W
HStem: 0 100<200 700> 450 100<200 700> 900 100<200 700>
VStem: 100 100<100 450 550 900> 700 100<100 450 550 900>
AnchorPoint: "Above" 600 0 basechar 0
LayerCount: 2
Fore
SplineSet
150 1000 m 2
 750 1000 l 2
 780.265075711 1000 800 971.459808665 800 950 c 2
 800 50 l 2
 800 19.7349242889 771.459808665 0 750 0 c 2
 150 0 l 2
 119.734924289 0 100 28.5401913347 100 50 c 2
 100 950 l 2
 100 980.265075711 128.540191335 1000 150 1000 c 2
200 450 m 1
 200 100 l 1
 700 100 l 1
 700 450 l 1
 200 450 l 1
200 550 m 1
 700 550 l 1
 700 900 l 1
 200 900 l 1
 200 550 l 1
EndSplineSet
EndChar

StartChar: NameMe.38
Encoding: 38 -1 98
Width: 1200
VWidth: 0
Flags: W
HStem: 0 100<200 700> 450 100<200 700> 900 100<200 700>
VStem: 100 100<100 450 550 900> 700 100<100 450 550 900>
AnchorPoint: "Above" 600 0 basechar 0
LayerCount: 2
Fore
SplineSet
150 1000 m 2
 750 1000 l 2
 780.265075711 1000 800 971.459808665 800 950 c 2
 800 50 l 2
 800 19.7349242889 771.459808665 0 750 0 c 2
 150 0 l 2
 119.734924289 0 100 28.5401913347 100 50 c 2
 100 950 l 2
 100 980.265075711 128.540191335 1000 150 1000 c 2
200 450 m 1
 200 100 l 1
 700 100 l 1
 700 450 l 1
 200 450 l 1
200 550 m 1
 700 550 l 1
 700 900 l 1
 200 900 l 1
 200 550 l 1
EndSplineSet
EndChar

StartChar: NameMe.39
Encoding: 39 -1 99
Width: 1200
VWidth: 0
Flags: W
HStem: 0 100<200 700> 450 100<200 700> 900 100<200 700>
VStem: 100 100<100 450 550 900> 700 100<100 450 550 900>
AnchorPoint: "Above" 600 0 basechar 0
LayerCount: 2
Fore
SplineSet
150 1000 m 2
 750 1000 l 2
 780.265075711 1000 800 971.459808665 800 950 c 2
 800 50 l 2
 800 19.7349242889 771.459808665 0 750 0 c 2
 150 0 l 2
 119.734924289 0 100 28.5401913347 100 50 c 2
 100 950 l 2
 100 980.265075711 128.540191335 1000 150 1000 c 2
200 450 m 1
 200 100 l 1
 700 100 l 1
 700 450 l 1
 200 450 l 1
200 550 m 1
 700 550 l 1
 700 900 l 1
 200 900 l 1
 200 550 l 1
EndSplineSet
EndChar

StartChar: NameMe.40
Encoding: 40 -1 100
Width: 1200
VWidth: 0
Flags: W
HStem: 0.5 100<199.5 800>
VStem: 99.5 100<100.5 999.5>
AnchorPoint: "Above" 600 0 basechar 0
LayerCount: 2
Back
SplineSet
149.5 999.5 m 29
 149.5 50.5 l 5
 800 50.5 l 1053
EndSplineSet
Fore
SplineSet
149.5 999.5 m 1
 199.5 999.5 l 1
 199.5 100.5 l 1
 800 100.5 l 1
 800 50.5 l 1
 800 0.5 l 1
 149.5 0.5 l 2
 128.040191335 0.5 99.5 20.2349242889 99.5 50.5 c 2
 99.5 999.5 l 1
 149.5 999.5 l 1
EndSplineSet
EndChar

StartChar: NameMe.41
Encoding: 41 -1 101
Width: 1200
VWidth: 0
Flags: W
HStem: 0 100<200 700> 450 100<200 700> 900 100<200 700>
VStem: 100 100<100 450 550 900> 700 100<100 450 550 900>
AnchorPoint: "Above" 600 0 basechar 0
LayerCount: 2
Fore
SplineSet
150 1000 m 2
 750 1000 l 2
 780.265075711 1000 800 971.459808665 800 950 c 2
 800 50 l 2
 800 19.7349242889 771.459808665 0 750 0 c 2
 150 0 l 2
 119.734924289 0 100 28.5401913347 100 50 c 2
 100 950 l 2
 100 980.265075711 128.540191335 1000 150 1000 c 2
200 450 m 1
 200 100 l 1
 700 100 l 1
 700 450 l 1
 200 450 l 1
200 550 m 1
 700 550 l 1
 700 900 l 1
 200 900 l 1
 200 550 l 1
EndSplineSet
EndChar

StartChar: NameMe.48
Encoding: 48 -1 102
Width: 1200
VWidth: 0
Flags: W
HStem: 0 100<200 700> 900 100<200 700>
VStem: 100 100<100 900> 700 100<100 900>
AnchorPoint: "Above" 600 0 basechar 0
LayerCount: 2
Back
SplineSet
150 950 m 29
 750 950 l 29
 750 50 l 29
 150 50 l 29
 150 950 l 29
EndSplineSet
Fore
SplineSet
200 900 m 1
 200 100 l 1
 700 100 l 1
 700 900 l 1
 200 900 l 1
150 1000 m 2
 750 1000 l 2
 780.265075711 1000 800 971.459808665 800 950 c 2
 800 50 l 2
 800 19.7349242889 771.459808665 0 750 0 c 2
 150 0 l 2
 119.734924289 0 100 28.5401913347 100 50 c 2
 100 950 l 2
 100 980.265075711 128.540191335 1000 150 1000 c 2
EndSplineSet
EndChar

StartChar: NameMe.49
Encoding: 49 -1 103
Width: 1200
VWidth: 0
Flags: W
HStem: 0 100<200 800> 900 100<200 800>
VStem: 100 100<100 900>
AnchorPoint: "Above" 600 0 basechar 0
LayerCount: 2
Back
SplineSet
800 50 m 13
 150 50 l 29
 150 950 l 29
 800 950 l 1045
EndSplineSet
Fore
SplineSet
800 50 m 1
 800 0 l 1
 150 0 l 2
 119.734924289 0 100 28.5401913347 100 50 c 2
 100 950 l 2
 100 980.265075711 128.540191335 1000 150 1000 c 2
 800 1000 l 1
 800 950 l 1
 800 900 l 1
 200 900 l 1
 200 100 l 1
 800 100 l 1
 800 50 l 1
EndSplineSet
EndChar

StartChar: NameMe.50
Encoding: 50 -1 104
Width: 1200
VWidth: 0
Flags: W
HStem: 0 100<200 700> 450 100<200 700> 900 100<200 700>
VStem: 100 100<100 450 550 900> 700 100<100 450 550 900>
AnchorPoint: "Above" 600 0 basechar 0
LayerCount: 2
Fore
SplineSet
150 1000 m 2
 750 1000 l 2
 780.265075711 1000 800 971.459808665 800 950 c 2
 800 50 l 2
 800 19.7349242889 771.459808665 0 750 0 c 2
 150 0 l 2
 119.734924289 0 100 28.5401913347 100 50 c 2
 100 950 l 2
 100 980.265075711 128.540191335 1000 150 1000 c 2
200 450 m 1
 200 100 l 1
 700 100 l 1
 700 450 l 1
 200 450 l 1
200 550 m 1
 700 550 l 1
 700 900 l 1
 200 900 l 1
 200 550 l 1
EndSplineSet
EndChar

StartChar: NameMe.51
Encoding: 51 -1 105
Width: 1200
VWidth: 0
Flags: W
HStem: 0 100<200 700> 450 100<200 700> 900 100<200 700>
VStem: 100 100<100 450 550 900> 700 100<100 450 550 900>
AnchorPoint: "Above" 600 0 basechar 0
LayerCount: 2
Fore
SplineSet
150 1000 m 2
 750 1000 l 2
 780.265075711 1000 800 971.459808665 800 950 c 2
 800 50 l 2
 800 19.7349242889 771.459808665 0 750 0 c 2
 150 0 l 2
 119.734924289 0 100 28.5401913347 100 50 c 2
 100 950 l 2
 100 980.265075711 128.540191335 1000 150 1000 c 2
200 450 m 1
 200 100 l 1
 700 100 l 1
 700 450 l 1
 200 450 l 1
200 550 m 1
 700 550 l 1
 700 900 l 1
 200 900 l 1
 200 550 l 1
EndSplineSet
EndChar

StartChar: NameMe.52
Encoding: 52 -1 106
Width: 1200
VWidth: 0
Flags: W
HStem: 0 100<200 700> 450 100<200 700> 900 100<200 700>
VStem: 100 100<100 450 550 900> 700 100<100 450 550 900>
AnchorPoint: "Above" 600 0 basechar 0
LayerCount: 2
Fore
SplineSet
150 1000 m 2
 750 1000 l 2
 780.265075711 1000 800 971.459808665 800 950 c 2
 800 50 l 2
 800 19.7349242889 771.459808665 0 750 0 c 2
 150 0 l 2
 119.734924289 0 100 28.5401913347 100 50 c 2
 100 950 l 2
 100 980.265075711 128.540191335 1000 150 1000 c 2
200 450 m 1
 200 100 l 1
 700 100 l 1
 700 450 l 1
 200 450 l 1
200 550 m 1
 700 550 l 1
 700 900 l 1
 200 900 l 1
 200 550 l 1
EndSplineSet
EndChar

StartChar: NameMe.53
Encoding: 53 -1 107
Width: 1200
VWidth: 0
Flags: W
HStem: 0 100<200 700> 450 100<200 700> 900 100<200 700>
VStem: 100 100<100 450 550 900> 700 100<100 450 550 900>
AnchorPoint: "Above" 600 0 basechar 0
LayerCount: 2
Fore
SplineSet
150 1000 m 2
 750 1000 l 2
 780.265075711 1000 800 971.459808665 800 950 c 2
 800 50 l 2
 800 19.7349242889 771.459808665 0 750 0 c 2
 150 0 l 2
 119.734924289 0 100 28.5401913347 100 50 c 2
 100 950 l 2
 100 980.265075711 128.540191335 1000 150 1000 c 2
200 450 m 1
 200 100 l 1
 700 100 l 1
 700 450 l 1
 200 450 l 1
200 550 m 1
 700 550 l 1
 700 900 l 1
 200 900 l 1
 200 550 l 1
EndSplineSet
EndChar

StartChar: NameMe.54
Encoding: 54 -1 108
Width: 1200
VWidth: 0
Flags: W
HStem: 0 100<200 700> 450 100<200 700> 900 100<200 700>
VStem: 100 100<100 450 550 900> 700 100<100 450 550 900>
AnchorPoint: "Above" 600 0 basechar 0
LayerCount: 2
Fore
SplineSet
150 1000 m 2
 750 1000 l 2
 780.265075711 1000 800 971.459808665 800 950 c 2
 800 50 l 2
 800 19.7349242889 771.459808665 0 750 0 c 2
 150 0 l 2
 119.734924289 0 100 28.5401913347 100 50 c 2
 100 950 l 2
 100 980.265075711 128.540191335 1000 150 1000 c 2
200 450 m 1
 200 100 l 1
 700 100 l 1
 700 450 l 1
 200 450 l 1
200 550 m 1
 700 550 l 1
 700 900 l 1
 200 900 l 1
 200 550 l 1
EndSplineSet
EndChar

StartChar: NameMe.55
Encoding: 55 -1 109
Width: 1200
VWidth: 0
Flags: W
HStem: 0 21G<700 800>
VStem: 100 100<215.139 1000> 700 100<0 784.861>
AnchorPoint: "Above" 600 0 basechar 0
LayerCount: 2
Back
SplineSet
150 1000 m 29
 150 50 l 5
 750 950 l 29
 750 0 l 1053
EndSplineSet
Fore
SplineSet
150 1000 m 1
 200 1000 l 1
 200 215.138781887 l 1
 708.397485283 977.735009811 l 2
 724.340016975 1001.64880735 758.324249978 1007.06786216 780.913528472 989.298266596 c 0
 793.383832772 979.488645448 800 962.388315379 800 950 c 2
 800 0 l 1
 750 0 l 1
 700 0 l 1
 700 784.861218113 l 1
 191.602514717 22.2649901887 l 2
 183.626206873 10.3005284235 169.273091264 1.36218410873 153.922854272 0.154125402803 c 0
 125.270640305 -2.10079460563 100 21.2591922616 100 50 c 2
 100 1000 l 1
 150 1000 l 1
EndSplineSet
EndChar

StartChar: NameMe.56
Encoding: 56 -1 110
Width: 1200
VWidth: 0
Flags: W
HStem: 0.5 100<99.5 700>
VStem: 700 100<100.5 999.5>
AnchorPoint: "Above" 600 0 basechar 0
LayerCount: 2
Back
SplineSet
99.5 50.5 m 5
 750 50.5 l 29
 750 999.5 l 1053
EndSplineSet
Fore
SplineSet
99.5 50.5 m 1
 99.5 100.5 l 1
 700 100.5 l 1
 700 999.5 l 1
 750 999.5 l 1
 800 999.5 l 1
 800 50.5 l 2
 800 29.0401913347 780.265075711 0.5 750 0.5 c 2
 99.5 0.5 l 1
 99.5 50.5 l 1
EndSplineSet
EndChar

StartChar: NameMe.57
Encoding: 57 -1 111
Width: 1200
VWidth: 0
Flags: W
HStem: 0 100<200 700> 450 100<200 700> 900 100<200 700>
VStem: 100 100<100 450 550 900> 700 100<100 450 550 900>
AnchorPoint: "Above" 600 0 basechar 0
LayerCount: 2
Fore
SplineSet
150 1000 m 2
 750 1000 l 2
 780.265075711 1000 800 971.459808665 800 950 c 2
 800 50 l 2
 800 19.7349242889 771.459808665 0 750 0 c 2
 150 0 l 2
 119.734924289 0 100 28.5401913347 100 50 c 2
 100 950 l 2
 100 980.265075711 128.540191335 1000 150 1000 c 2
200 450 m 1
 200 100 l 1
 700 100 l 1
 700 450 l 1
 200 450 l 1
200 550 m 1
 700 550 l 1
 700 900 l 1
 200 900 l 1
 200 550 l 1
EndSplineSet
EndChar

StartChar: NameMe.65
Encoding: 65 -1 112
Width: 1200
VWidth: 0
Flags: W
HStem: 300 100<200 999> 600 100<200 999> 900 100<200 999>
VStem: 100 100<400 600 700 900> 999 100<400 600 700 900>
AnchorPoint: "Above" 600 0 basechar 0
LayerCount: 2
Fore
SplineSet
150 1000 m 2
 1050 1000 l 2
 1080.26507571 1000 1100 971.459808665 1100 950 c 2
 1100 350 l 2
 1100 319.734924289 1071.45980867 300 1050 300 c 2
 150 300 l 2
 119.734924289 300 100 328.540191335 100 350 c 2
 100 950 l 2
 100 980.265075711 128.540191335 1000 150 1000 c 2
1000 700 m 1
 1000 900 l 1
 200 900 l 1
 200 700 l 1
 1000 700 l 1
1000 600 m 1
 200 600 l 1
 200 400 l 1
 1000 400 l 1
 1000 600 l 1
EndSplineSet
EndChar

StartChar: NameMe.67
Encoding: 67 -1 113
Width: 1200
VWidth: 0
Flags: W
HStem: 300 100<200 999> 600 100<200 999> 900 100<200 999>
VStem: 100 100<400 600 700 900> 999 100<400 600 700 900>
AnchorPoint: "Above" 600 0 basechar 0
LayerCount: 2
Fore
SplineSet
150 1000 m 2
 1050 1000 l 2
 1080.26507571 1000 1100 971.459808665 1100 950 c 2
 1100 350 l 2
 1100 319.734924289 1071.45980867 300 1050 300 c 2
 150 300 l 2
 119.734924289 300 100 328.540191335 100 350 c 2
 100 950 l 2
 100 980.265075711 128.540191335 1000 150 1000 c 2
1000 700 m 1
 1000 900 l 1
 200 900 l 1
 200 700 l 1
 1000 700 l 1
1000 600 m 1
 200 600 l 1
 200 400 l 1
 1000 400 l 1
 1000 600 l 1
EndSplineSet
EndChar

StartChar: NameMe.68
Encoding: 68 -1 114
Width: 1200
VWidth: 0
Flags: W
HStem: 300 100<200 999> 600 100<200 999> 900 100<200 999>
VStem: 100 100<400 600 700 900> 999 100<400 600 700 900>
AnchorPoint: "Above" 600 0 basechar 0
LayerCount: 2
Fore
SplineSet
150 1000 m 2
 1050 1000 l 2
 1080.26507571 1000 1100 971.459808665 1100 950 c 2
 1100 350 l 2
 1100 319.734924289 1071.45980867 300 1050 300 c 2
 150 300 l 2
 119.734924289 300 100 328.540191335 100 350 c 2
 100 950 l 2
 100 980.265075711 128.540191335 1000 150 1000 c 2
1000 700 m 1
 1000 900 l 1
 200 900 l 1
 200 700 l 1
 1000 700 l 1
1000 600 m 1
 200 600 l 1
 200 400 l 1
 1000 400 l 1
 1000 600 l 1
EndSplineSet
EndChar

StartChar: NameMe.69
Encoding: 69 -1 115
Width: 1200
VWidth: 0
Flags: W
HStem: 300 100<200 999> 600 100<200 999> 900 100<200 999>
VStem: 100 100<400 600 700 900> 999 100<400 600 700 900>
AnchorPoint: "Above" 600 0 basechar 0
LayerCount: 2
Fore
SplineSet
150 1000 m 2
 1050 1000 l 2
 1080.26507571 1000 1100 971.459808665 1100 950 c 2
 1100 350 l 2
 1100 319.734924289 1071.45980867 300 1050 300 c 2
 150 300 l 2
 119.734924289 300 100 328.540191335 100 350 c 2
 100 950 l 2
 100 980.265075711 128.540191335 1000 150 1000 c 2
1000 700 m 1
 1000 900 l 1
 200 900 l 1
 200 700 l 1
 1000 700 l 1
1000 600 m 1
 200 600 l 1
 200 400 l 1
 1000 400 l 1
 1000 600 l 1
EndSplineSet
EndChar

StartChar: NameMe.70
Encoding: 70 -1 116
Width: 1200
VWidth: 0
Flags: W
HStem: 300 100<200 999> 600 100<200 999> 900 100<200 999>
VStem: 100 100<400 600 700 900> 999 100<400 600 700 900>
AnchorPoint: "Above" 600 0 basechar 0
LayerCount: 2
Fore
SplineSet
150 1000 m 2
 1050 1000 l 2
 1080.26507571 1000 1100 971.459808665 1100 950 c 2
 1100 350 l 2
 1100 319.734924289 1071.45980867 300 1050 300 c 2
 150 300 l 2
 119.734924289 300 100 328.540191335 100 350 c 2
 100 950 l 2
 100 980.265075711 128.540191335 1000 150 1000 c 2
1000 700 m 1
 1000 900 l 1
 200 900 l 1
 200 700 l 1
 1000 700 l 1
1000 600 m 1
 200 600 l 1
 200 400 l 1
 1000 400 l 1
 1000 600 l 1
EndSplineSet
EndChar

StartChar: NameMe.71
Encoding: 71 -1 117
Width: 1200
VWidth: 0
Flags: W
HStem: 300 100<200 999> 600 100<200 999> 900 100<200 999>
VStem: 100 100<400 600 700 900> 999 100<400 600 700 900>
AnchorPoint: "Above" 600 0 basechar 0
LayerCount: 2
Fore
SplineSet
150 1000 m 2
 1050 1000 l 2
 1080.26507571 1000 1100 971.459808665 1100 950 c 2
 1100 350 l 2
 1100 319.734924289 1071.45980867 300 1050 300 c 2
 150 300 l 2
 119.734924289 300 100 328.540191335 100 350 c 2
 100 950 l 2
 100 980.265075711 128.540191335 1000 150 1000 c 2
1000 700 m 1
 1000 900 l 1
 200 900 l 1
 200 700 l 1
 1000 700 l 1
1000 600 m 1
 200 600 l 1
 200 400 l 1
 1000 400 l 1
 1000 600 l 1
EndSplineSet
EndChar

StartChar: NameMe.72
Encoding: 72 -1 118
Width: 1200
VWidth: 0
Flags: W
HStem: 300 100.026<200 1100.47>
VStem: 100 100<400.026 1000>
AnchorPoint: "Above" 600 0 basechar 0
LayerCount: 2
Back
SplineSet
150 1000 m 29
 150 350 l 29
 1100.5 350.5 l 1053
EndSplineSet
Fore
SplineSet
150 1000 m 1
 200 1000 l 1
 200 400.026308864 l 1
 1100.47369806 400.499993082 l 1
 1100.5 350.5 l 1
 1100.52630194 300.500006918 l 1
 150.026301943 300.000006918 l 2
 128.517836118 299.988692628 100 319.743402766 100 350 c 2
 100 1000 l 1
 150 1000 l 1
EndSplineSet
EndChar

StartChar: NameMe.73
Encoding: 73 -1 119
Width: 1200
VWidth: 0
Flags: W
HStem: 300 100<200 999> 600 100<200 999> 900 100<200 999>
VStem: 100 100<400 600 700 900> 999 100<400 600 700 900>
AnchorPoint: "Above" 600 0 basechar 0
LayerCount: 2
Fore
SplineSet
150 1000 m 2
 1050 1000 l 2
 1080.26507571 1000 1100 971.459808665 1100 950 c 2
 1100 350 l 2
 1100 319.734924289 1071.45980867 300 1050 300 c 2
 150 300 l 2
 119.734924289 300 100 328.540191335 100 350 c 2
 100 950 l 2
 100 980.265075711 128.540191335 1000 150 1000 c 2
1000 700 m 1
 1000 900 l 1
 200 900 l 1
 200 700 l 1
 1000 700 l 1
1000 600 m 1
 200 600 l 1
 200 400 l 1
 1000 400 l 1
 1000 600 l 1
EndSplineSet
EndChar

StartChar: NameMe.80
Encoding: 80 -1 120
Width: 1200
VWidth: 0
Flags: W
HStem: 300 100<200 1000> 900 100<200 1000>
VStem: 100 100<400 900> 1000 100<400 900>
AnchorPoint: "Above" 600 0 basechar 0
LayerCount: 2
Back
SplineSet
150 950 m 29
 1050 950 l 29
 1050 350 l 29
 150 350 l 29
 150 950 l 29
EndSplineSet
Fore
SplineSet
200 900 m 1
 200 400 l 1
 1000 400 l 1
 1000 900 l 1
 200 900 l 1
150 1000 m 2
 1050 1000 l 2
 1080.26507571 1000 1100 971.459808665 1100 950 c 2
 1100 350 l 2
 1100 319.734924289 1071.45980867 300 1050 300 c 2
 150 300 l 2
 119.734924289 300 100 328.540191335 100 350 c 2
 100 950 l 2
 100 980.265075711 128.540191335 1000 150 1000 c 2
EndSplineSet
EndChar

StartChar: NameMe.81
Encoding: 81 -1 121
Width: 1200
VWidth: 0
Flags: W
HStem: 300 100<200 1100> 900 100<200 1100>
VStem: 100 100<400 900>
AnchorPoint: "Above" 600 0 basechar 0
LayerCount: 2
Back
SplineSet
1100 950 m 29
 150 950 l 5
 150 350 l 29
 1100 350 l 1053
EndSplineSet
Fore
SplineSet
1100 950 m 1
 1100 900 l 1
 200 900 l 1
 200 400 l 1
 1100 400 l 1
 1100 350 l 1
 1100 300 l 1
 150 300 l 2
 128.540191335 300 100 319.734924289 100 350 c 2
 100 950 l 2
 100 971.459808665 119.734924289 1000 150 1000 c 2
 1100 1000 l 1
 1100 950 l 1
EndSplineSet
EndChar

StartChar: NameMe.82
Encoding: 82 -1 122
Width: 1200
VWidth: 0
Flags: W
HStem: 300 100<200 999> 600 100<200 999> 900 100<200 999>
VStem: 100 100<400 600 700 900> 999 100<400 600 700 900>
AnchorPoint: "Above" 600 0 basechar 0
LayerCount: 2
Fore
SplineSet
150 1000 m 2
 1050 1000 l 2
 1080.26507571 1000 1100 971.459808665 1100 950 c 2
 1100 350 l 2
 1100 319.734924289 1071.45980867 300 1050 300 c 2
 150 300 l 2
 119.734924289 300 100 328.540191335 100 350 c 2
 100 950 l 2
 100 980.265075711 128.540191335 1000 150 1000 c 2
1000 700 m 1
 1000 900 l 1
 200 900 l 1
 200 700 l 1
 1000 700 l 1
1000 600 m 1
 200 600 l 1
 200 400 l 1
 1000 400 l 1
 1000 600 l 1
EndSplineSet
EndChar

StartChar: NameMe.83
Encoding: 83 -1 123
Width: 1200
VWidth: 0
Flags: W
HStem: 300 100<200 999> 600 100<200 999> 900 100<200 999>
VStem: 100 100<400 600 700 900> 999 100<400 600 700 900>
AnchorPoint: "Above" 600 0 basechar 0
LayerCount: 2
Fore
SplineSet
150 1000 m 2
 1050 1000 l 2
 1080.26507571 1000 1100 971.459808665 1100 950 c 2
 1100 350 l 2
 1100 319.734924289 1071.45980867 300 1050 300 c 2
 150 300 l 2
 119.734924289 300 100 328.540191335 100 350 c 2
 100 950 l 2
 100 980.265075711 128.540191335 1000 150 1000 c 2
1000 700 m 1
 1000 900 l 1
 200 900 l 1
 200 700 l 1
 1000 700 l 1
1000 600 m 1
 200 600 l 1
 200 400 l 1
 1000 400 l 1
 1000 600 l 1
EndSplineSet
EndChar

StartChar: NameMe.84
Encoding: 84 -1 124
Width: 1200
VWidth: 0
Flags: W
HStem: 300 100<200 999> 600 100<200 999> 900 100<200 999>
VStem: 100 100<400 600 700 900> 999 100<400 600 700 900>
AnchorPoint: "Above" 600 0 basechar 0
LayerCount: 2
Fore
SplineSet
150 1000 m 2
 1050 1000 l 2
 1080.26507571 1000 1100 971.459808665 1100 950 c 2
 1100 350 l 2
 1100 319.734924289 1071.45980867 300 1050 300 c 2
 150 300 l 2
 119.734924289 300 100 328.540191335 100 350 c 2
 100 950 l 2
 100 980.265075711 128.540191335 1000 150 1000 c 2
1000 700 m 1
 1000 900 l 1
 200 900 l 1
 200 700 l 1
 1000 700 l 1
1000 600 m 1
 200 600 l 1
 200 400 l 1
 1000 400 l 1
 1000 600 l 1
EndSplineSet
EndChar

StartChar: NameMe.85
Encoding: 85 -1 125
Width: 1200
VWidth: 0
Flags: W
HStem: 300 100<200 999> 600 100<200 999> 900 100<200 999>
VStem: 100 100<400 600 700 900> 999 100<400 600 700 900>
AnchorPoint: "Above" 600 0 basechar 0
LayerCount: 2
Fore
SplineSet
150 1000 m 2
 1050 1000 l 2
 1080.26507571 1000 1100 971.459808665 1100 950 c 2
 1100 350 l 2
 1100 319.734924289 1071.45980867 300 1050 300 c 2
 150 300 l 2
 119.734924289 300 100 328.540191335 100 350 c 2
 100 950 l 2
 100 980.265075711 128.540191335 1000 150 1000 c 2
1000 700 m 1
 1000 900 l 1
 200 900 l 1
 200 700 l 1
 1000 700 l 1
1000 600 m 1
 200 600 l 1
 200 400 l 1
 1000 400 l 1
 1000 600 l 1
EndSplineSet
EndChar

StartChar: NameMe.86
Encoding: 86 -1 126
Width: 1200
VWidth: 0
Flags: W
HStem: 300 100<200 999> 600 100<200 999> 900 100<200 999>
VStem: 100 100<400 600 700 900> 999 100<400 600 700 900>
AnchorPoint: "Above" 600 0 basechar 0
LayerCount: 2
Fore
SplineSet
150 1000 m 2
 1050 1000 l 2
 1080.26507571 1000 1100 971.459808665 1100 950 c 2
 1100 350 l 2
 1100 319.734924289 1071.45980867 300 1050 300 c 2
 150 300 l 2
 119.734924289 300 100 328.540191335 100 350 c 2
 100 950 l 2
 100 980.265075711 128.540191335 1000 150 1000 c 2
1000 700 m 1
 1000 900 l 1
 200 900 l 1
 200 700 l 1
 1000 700 l 1
1000 600 m 1
 200 600 l 1
 200 400 l 1
 1000 400 l 1
 1000 600 l 1
EndSplineSet
EndChar

StartChar: NameMe.87
Encoding: 87 -1 127
Width: 1200
VWidth: 0
Flags: W
VStem: 100 100<443.426 1000> 1000 100<300 856.574>
AnchorPoint: "Above" 600 0 basechar 0
LayerCount: 2
Back
SplineSet
150 1000 m 5
 150 350 l 5
 1050 950 l 5
 1050 300 l 1053
EndSplineSet
Fore
SplineSet
150 1000 m 1
 200 1000 l 1
 200 443.425854591 l 1
 1022.26499019 991.602514717 l 2
 1046.17878773 1007.54504641 1079.63310081 999.476392004 1093.65028266 974.385504368 c 0
 1097.84812335 966.871329976 1100 955.217053936 1100 950 c 2
 1100 300 l 1
 1050 300 l 1
 1000 300 l 1
 1000 856.574145409 l 1
 177.735009811 308.397485283 l 2
 172.884732938 305.163967367 162.416079774 300.822539514 153.922854272 300.154125403 c 0
 125.270640305 297.899205394 100 321.259192262 100 350 c 2
 100 1000 l 1
 150 1000 l 1
EndSplineSet
EndChar

StartChar: NameMe.88
Encoding: 88 -1 128
Width: 1200
VWidth: 0
Flags: W
HStem: 300 100<99.5 1000.5>
VStem: 1000.5 100<400 999.5>
AnchorPoint: "Above" 600 0 basechar 0
LayerCount: 2
Back
SplineSet
99.5 350 m 29
 1050.5 350 l 29
 1050.5 999.5 l 1029
EndSplineSet
Fore
SplineSet
99.5 350 m 1
 99.5 400 l 1
 1000.5 400 l 1
 1000.5 999.5 l 1
 1050.5 999.5 l 1
 1100.5 999.5 l 1
 1100.5 350 l 2
 1100.5 328.540191335 1080.76507571 300 1050.5 300 c 2
 99.5 300 l 1
 99.5 350 l 1
EndSplineSet
EndChar

StartChar: NameMe.89
Encoding: 89 -1 129
Width: 1200
VWidth: 0
Flags: W
HStem: 300 100<100 1000> 600 100<200 1000> 898 100<200 1099>
VStem: 100 100<700 898> 1000 100<400 600>
AnchorPoint: "Above" 600 0 basechar 0
LayerCount: 2
Back
SplineSet
1099 948 m 29
 150 948 l 5
 150 650 l 29
 1050 650 l 5
 1050 350 l 5
 100 350 l 1053
EndSplineSet
Fore
SplineSet
1099 948 m 1
 1099 898 l 1
 200 898 l 1
 200 700 l 1
 1050 700 l 2
 1080.26507571 700 1100 671.459808665 1100 650 c 2
 1100 350 l 2
 1100 319.734924289 1071.45980867 300 1050 300 c 2
 100 300 l 1
 100 350 l 1
 100 400 l 1
 1000 400 l 1
 1000 600 l 1
 150 600 l 2
 128.540191335 600 100 619.734924289 100 650 c 2
 100 948 l 2
 100 969.459808665 119.734924289 998 150 998 c 2
 1099 998 l 1
 1099 948 l 1
EndSplineSet
EndChar

StartChar: NameMe.97
Encoding: 97 -1 131
Width: 1200
VWidth: 0
Flags: W
HStem: 550 100<200 699> 725 100<200 699> 900 100<200 699>
VStem: 100 100<650 725 825 900> 699 100<650 725 825 900>
AnchorPoint: "Above" 600 0 basechar 0
LayerCount: 2
Fore
SplineSet
150 1000 m 2
 750 1000 l 2
 780.265075711 1000 800 971.459808665 800 950 c 2
 800 600 l 2
 800 569.734924289 771.459808665 550 750 550 c 2
 150 550 l 2
 119.734924289 550 100 578.540191335 100 600 c 2
 100 950 l 2
 100 980.265075711 128.540191335 1000 150 1000 c 2
700 825 m 1
 700 900 l 1
 200 900 l 1
 200 825 l 1
 700 825 l 1
700 725 m 1
 200 725 l 1
 200 650 l 1
 700 650 l 1
 700 725 l 1
EndSplineSet
EndChar

StartChar: NameMe.98
Encoding: 98 -1 132
Width: 1200
VWidth: 0
Flags: W
HStem: 550 100<200 699> 725 100<200 699> 900 100<200 699>
VStem: 100 100<650 725 825 900> 699 100<650 725 825 900>
AnchorPoint: "Above" 600 0 basechar 0
LayerCount: 2
Fore
SplineSet
150 1000 m 2
 750 1000 l 2
 780.265075711 1000 800 971.459808665 800 950 c 2
 800 600 l 2
 800 569.734924289 771.459808665 550 750 550 c 2
 150 550 l 2
 119.734924289 550 100 578.540191335 100 600 c 2
 100 950 l 2
 100 980.265075711 128.540191335 1000 150 1000 c 2
700 825 m 1
 700 900 l 1
 200 900 l 1
 200 825 l 1
 700 825 l 1
700 725 m 1
 200 725 l 1
 200 650 l 1
 700 650 l 1
 700 725 l 1
EndSplineSet
EndChar

StartChar: NameMe.99
Encoding: 99 -1 133
Width: 1200
VWidth: 0
Flags: W
HStem: 550 100<200 699> 725 100<200 699> 900 100<200 699>
VStem: 100 100<650 725 825 900> 699 100<650 725 825 900>
AnchorPoint: "Above" 600 0 basechar 0
LayerCount: 2
Fore
SplineSet
150 1000 m 2
 750 1000 l 2
 780.265075711 1000 800 971.459808665 800 950 c 2
 800 600 l 2
 800 569.734924289 771.459808665 550 750 550 c 2
 150 550 l 2
 119.734924289 550 100 578.540191335 100 600 c 2
 100 950 l 2
 100 980.265075711 128.540191335 1000 150 1000 c 2
700 825 m 1
 700 900 l 1
 200 900 l 1
 200 825 l 1
 700 825 l 1
700 725 m 1
 200 725 l 1
 200 650 l 1
 700 650 l 1
 700 725 l 1
EndSplineSet
EndChar

StartChar: NameMe.100
Encoding: 100 -1 134
Width: 1200
VWidth: 0
Flags: W
HStem: 550 100<200 699> 725 100<200 699> 900 100<200 699>
VStem: 100 100<650 725 825 900> 699 100<650 725 825 900>
AnchorPoint: "Above" 600 0 basechar 0
LayerCount: 2
Fore
SplineSet
150 1000 m 2
 750 1000 l 2
 780.265075711 1000 800 971.459808665 800 950 c 2
 800 600 l 2
 800 569.734924289 771.459808665 550 750 550 c 2
 150 550 l 2
 119.734924289 550 100 578.540191335 100 600 c 2
 100 950 l 2
 100 980.265075711 128.540191335 1000 150 1000 c 2
700 825 m 1
 700 900 l 1
 200 900 l 1
 200 825 l 1
 700 825 l 1
700 725 m 1
 200 725 l 1
 200 650 l 1
 700 650 l 1
 700 725 l 1
EndSplineSet
EndChar

StartChar: NameMe.101
Encoding: 101 -1 135
Width: 1200
VWidth: 0
Flags: W
HStem: 550 100<200 699> 725 100<200 699> 900 100<200 699>
VStem: 100 100<650 725 825 900> 699 100<650 725 825 900>
AnchorPoint: "Above" 600 0 basechar 0
LayerCount: 2
Fore
SplineSet
150 1000 m 2
 750 1000 l 2
 780.265075711 1000 800 971.459808665 800 950 c 2
 800 600 l 2
 800 569.734924289 771.459808665 550 750 550 c 2
 150 550 l 2
 119.734924289 550 100 578.540191335 100 600 c 2
 100 950 l 2
 100 980.265075711 128.540191335 1000 150 1000 c 2
700 825 m 1
 700 900 l 1
 200 900 l 1
 200 825 l 1
 700 825 l 1
700 725 m 1
 200 725 l 1
 200 650 l 1
 700 650 l 1
 700 725 l 1
EndSplineSet
EndChar

StartChar: NameMe.102
Encoding: 102 -1 136
Width: 1200
VWidth: 0
Flags: W
HStem: 550 100<200 699> 725 100<200 699> 900 100<200 699>
VStem: 100 100<650 725 825 900> 699 100<650 725 825 900>
AnchorPoint: "Above" 600 0 basechar 0
LayerCount: 2
Fore
SplineSet
150 1000 m 2
 750 1000 l 2
 780.265075711 1000 800 971.459808665 800 950 c 2
 800 600 l 2
 800 569.734924289 771.459808665 550 750 550 c 2
 150 550 l 2
 119.734924289 550 100 578.540191335 100 600 c 2
 100 950 l 2
 100 980.265075711 128.540191335 1000 150 1000 c 2
700 825 m 1
 700 900 l 1
 200 900 l 1
 200 825 l 1
 700 825 l 1
700 725 m 1
 200 725 l 1
 200 650 l 1
 700 650 l 1
 700 725 l 1
EndSplineSet
EndChar

StartChar: NameMe.103
Encoding: 103 -1 137
Width: 1200
VWidth: 0
Flags: W
HStem: 550 100<200 699> 725 100<200 699> 900 100<200 699>
VStem: 100 100<650 725 825 900> 699 100<650 725 825 900>
AnchorPoint: "Above" 600 0 basechar 0
LayerCount: 2
Fore
SplineSet
150 1000 m 2
 750 1000 l 2
 780.265075711 1000 800 971.459808665 800 950 c 2
 800 600 l 2
 800 569.734924289 771.459808665 550 750 550 c 2
 150 550 l 2
 119.734924289 550 100 578.540191335 100 600 c 2
 100 950 l 2
 100 980.265075711 128.540191335 1000 150 1000 c 2
700 825 m 1
 700 900 l 1
 200 900 l 1
 200 825 l 1
 700 825 l 1
700 725 m 1
 200 725 l 1
 200 650 l 1
 700 650 l 1
 700 725 l 1
EndSplineSet
EndChar

StartChar: NameMe.104
Encoding: 104 -1 138
Width: 1200
VWidth: 0
Flags: W
HStem: 550 100<200 699> 725 100<200 699> 900 100<200 699>
VStem: 100 100<650 725 825 900> 699 100<650 725 825 900>
AnchorPoint: "Above" 600 0 basechar 0
LayerCount: 2
Fore
SplineSet
150 1000 m 2
 750 1000 l 2
 780.265075711 1000 800 971.459808665 800 950 c 2
 800 600 l 2
 800 569.734924289 771.459808665 550 750 550 c 2
 150 550 l 2
 119.734924289 550 100 578.540191335 100 600 c 2
 100 950 l 2
 100 980.265075711 128.540191335 1000 150 1000 c 2
700 825 m 1
 700 900 l 1
 200 900 l 1
 200 825 l 1
 700 825 l 1
700 725 m 1
 200 725 l 1
 200 650 l 1
 700 650 l 1
 700 725 l 1
EndSplineSet
EndChar

StartChar: NameMe.105
Encoding: 105 -1 139
Width: 1200
VWidth: 0
Flags: W
HStem: 550 100<200 699> 725 100<200 699> 900 100<200 699>
VStem: 100 100<650 725 825 900> 699 100<650 725 825 900>
AnchorPoint: "Above" 600 0 basechar 0
LayerCount: 2
Fore
SplineSet
150 1000 m 2
 750 1000 l 2
 780.265075711 1000 800 971.459808665 800 950 c 2
 800 600 l 2
 800 569.734924289 771.459808665 550 750 550 c 2
 150 550 l 2
 119.734924289 550 100 578.540191335 100 600 c 2
 100 950 l 2
 100 980.265075711 128.540191335 1000 150 1000 c 2
700 825 m 1
 700 900 l 1
 200 900 l 1
 200 825 l 1
 700 825 l 1
700 725 m 1
 200 725 l 1
 200 650 l 1
 700 650 l 1
 700 725 l 1
EndSplineSet
EndChar

StartChar: NameMe.112
Encoding: 112 -1 140
Width: 1200
VWidth: 0
Flags: W
HStem: 550 100<200 700> 900 100<200 700>
VStem: 100 100<650 900> 700 100<650 900>
AnchorPoint: "Above" 600 0 basechar 0
LayerCount: 2
Back
SplineSet
150 950 m 29
 750 950 l 29
 750 600 l 29
 150 600 l 29
 150 950 l 29
EndSplineSet
Fore
SplineSet
200 900 m 1
 200 650 l 1
 700 650 l 1
 700 900 l 1
 200 900 l 1
150 1000 m 2
 750 1000 l 2
 780.265075711 1000 800 971.459808665 800 950 c 2
 800 600 l 2
 800 569.734924289 771.459808665 550 750 550 c 2
 150 550 l 2
 119.734924289 550 100 578.540191335 100 600 c 2
 100 950 l 2
 100 980.265075711 128.540191335 1000 150 1000 c 2
EndSplineSet
EndChar

StartChar: NameMe.113
Encoding: 113 -1 141
Width: 1200
VWidth: 0
Flags: W
HStem: 550 100<200 699> 725 100<200 699> 900 100<200 699>
VStem: 100 100<650 725 825 900> 699 100<650 725 825 900>
AnchorPoint: "Above" 600 0 basechar 0
LayerCount: 2
Fore
SplineSet
200 900 m 1
 200 650 l 1
 700 650 l 1
 700 900 l 1
 200 900 l 1
150 1000 m 2
 750 1000 l 2
 780.265075711 1000 800 971.459808665 800 950 c 2
 800 600 l 2
 800 569.734924289 771.459808665 550 750 550 c 2
 150 550 l 2
 119.734924289 550 100 578.540191335 100 600 c 2
 100 950 l 2
 100 980.265075711 128.540191335 1000 150 1000 c 2
EndSplineSet
EndChar

StartChar: NameMe.114
Encoding: 114 -1 142
Width: 1200
VWidth: 0
Flags: W
HStem: 550 100<200 699> 725 100<200 699> 900 100<200 699>
VStem: 100 100<650 725 825 900> 699 100<650 725 825 900>
AnchorPoint: "Above" 600 0 basechar 0
LayerCount: 2
Fore
SplineSet
200 900 m 1
 200 650 l 1
 700 650 l 1
 700 900 l 1
 200 900 l 1
150 1000 m 2
 750 1000 l 2
 780.265075711 1000 800 971.459808665 800 950 c 2
 800 600 l 2
 800 569.734924289 771.459808665 550 750 550 c 2
 150 550 l 2
 119.734924289 550 100 578.540191335 100 600 c 2
 100 950 l 2
 100 980.265075711 128.540191335 1000 150 1000 c 2
EndSplineSet
EndChar

StartChar: NameMe.115
Encoding: 115 -1 143
Width: 1200
VWidth: 0
Flags: W
HStem: 550 100<200 699> 725 100<200 699> 900 100<200 699>
VStem: 100 100<650 725 825 900> 699 100<650 725 825 900>
AnchorPoint: "Above" 600 0 basechar 0
LayerCount: 2
Fore
SplineSet
200 900 m 1
 200 650 l 1
 700 650 l 1
 700 900 l 1
 200 900 l 1
150 1000 m 2
 750 1000 l 2
 780.265075711 1000 800 971.459808665 800 950 c 2
 800 600 l 2
 800 569.734924289 771.459808665 550 750 550 c 2
 150 550 l 2
 119.734924289 550 100 578.540191335 100 600 c 2
 100 950 l 2
 100 980.265075711 128.540191335 1000 150 1000 c 2
EndSplineSet
EndChar

StartChar: NameMe.116
Encoding: 116 -1 144
Width: 1200
VWidth: 0
Flags: W
HStem: 550 100<200 699> 725 100<200 699> 900 100<200 699>
VStem: 100 100<650 725 825 900> 699 100<650 725 825 900>
AnchorPoint: "Above" 600 0 basechar 0
LayerCount: 2
Fore
SplineSet
200 900 m 1
 200 650 l 1
 700 650 l 1
 700 900 l 1
 200 900 l 1
150 1000 m 2
 750 1000 l 2
 780.265075711 1000 800 971.459808665 800 950 c 2
 800 600 l 2
 800 569.734924289 771.459808665 550 750 550 c 2
 150 550 l 2
 119.734924289 550 100 578.540191335 100 600 c 2
 100 950 l 2
 100 980.265075711 128.540191335 1000 150 1000 c 2
EndSplineSet
EndChar

StartChar: NameMe.117
Encoding: 117 -1 145
Width: 1200
VWidth: 0
Flags: W
HStem: 550 100<200 699> 725 100<200 699> 900 100<200 699>
VStem: 100 100<650 725 825 900> 699 100<650 725 825 900>
AnchorPoint: "Above" 600 0 basechar 0
LayerCount: 2
Fore
SplineSet
200 900 m 1
 200 650 l 1
 700 650 l 1
 700 900 l 1
 200 900 l 1
150 1000 m 2
 750 1000 l 2
 780.265075711 1000 800 971.459808665 800 950 c 2
 800 600 l 2
 800 569.734924289 771.459808665 550 750 550 c 2
 150 550 l 2
 119.734924289 550 100 578.540191335 100 600 c 2
 100 950 l 2
 100 980.265075711 128.540191335 1000 150 1000 c 2
EndSplineSet
EndChar

StartChar: NameMe.118
Encoding: 118 -1 146
Width: 1200
VWidth: 0
Flags: W
HStem: 550 100<200 699> 725 100<200 699> 900 100<200 699>
VStem: 100 100<650 725 825 900> 699 100<650 725 825 900>
AnchorPoint: "Above" 600 0 basechar 0
LayerCount: 2
Fore
SplineSet
200 900 m 1
 200 650 l 1
 700 650 l 1
 700 900 l 1
 200 900 l 1
150 1000 m 2
 750 1000 l 2
 780.265075711 1000 800 971.459808665 800 950 c 2
 800 600 l 2
 800 569.734924289 771.459808665 550 750 550 c 2
 150 550 l 2
 119.734924289 550 100 578.540191335 100 600 c 2
 100 950 l 2
 100 980.265075711 128.540191335 1000 150 1000 c 2
EndSplineSet
EndChar

StartChar: NameMe.119
Encoding: 119 -1 147
Width: 1200
VWidth: 0
Flags: W
HStem: 550 100<200 699> 725 100<200 699> 900 100<200 699>
VStem: 100 100<650 725 825 900> 699 100<650 725 825 900>
AnchorPoint: "Above" 600 0 basechar 0
LayerCount: 2
Fore
SplineSet
200 900 m 1
 200 650 l 1
 700 650 l 1
 700 900 l 1
 200 900 l 1
150 1000 m 2
 750 1000 l 2
 780.265075711 1000 800 971.459808665 800 950 c 2
 800 600 l 2
 800 569.734924289 771.459808665 550 750 550 c 2
 150 550 l 2
 119.734924289 550 100 578.540191335 100 600 c 2
 100 950 l 2
 100 980.265075711 128.540191335 1000 150 1000 c 2
EndSplineSet
EndChar

StartChar: NameMe.120
Encoding: 120 -1 148
Width: 1200
VWidth: 0
Flags: W
HStem: 550 100<200 699> 725 100<200 699> 900 100<200 699>
VStem: 100 100<650 725 825 900> 699 100<650 725 825 900>
AnchorPoint: "Above" 600 0 basechar 0
LayerCount: 2
Fore
SplineSet
200 900 m 1
 200 650 l 1
 700 650 l 1
 700 900 l 1
 200 900 l 1
150 1000 m 2
 750 1000 l 2
 780.265075711 1000 800 971.459808665 800 950 c 2
 800 600 l 2
 800 569.734924289 771.459808665 550 750 550 c 2
 150 550 l 2
 119.734924289 550 100 578.540191335 100 600 c 2
 100 950 l 2
 100 980.265075711 128.540191335 1000 150 1000 c 2
EndSplineSet
EndChar

StartChar: NameMe.121
Encoding: 121 -1 149
Width: 1200
VWidth: 0
Flags: W
HStem: 550 100<200 699> 725 100<200 699> 900 100<200 699>
VStem: 100 100<650 725 825 900> 699 100<650 725 825 900>
AnchorPoint: "Above" 600 0 basechar 0
LayerCount: 2
Fore
SplineSet
200 900 m 1
 200 650 l 1
 700 650 l 1
 700 900 l 1
 200 900 l 1
150 1000 m 2
 750 1000 l 2
 780.265075711 1000 800 971.459808665 800 950 c 2
 800 600 l 2
 800 569.734924289 771.459808665 550 750 550 c 2
 150 550 l 2
 119.734924289 550 100 578.540191335 100 600 c 2
 100 950 l 2
 100 980.265075711 128.540191335 1000 150 1000 c 2
EndSplineSet
EndChar

StartChar: NameMe.161
Encoding: 161 -1 150
Width: 1200
VWidth: 0
Flags: W
HStem: 300 100<200 450> 600 100<200 450> 900 100<200 450>
VStem: 100 100<400 600 700 900> 450 100<400 600 700 900>
CounterMasks: 1 e0
AnchorPoint: "Above" 600 0 basechar 0
LayerCount: 2
Fore
SplineSet
150 1000 m 2
 500 1000 l 2
 530.265075711 1000 550 971.459808665 550 950 c 2
 550 350 l 2
 550 319.734924289 521.459808665 300 500 300 c 2
 150 300 l 2
 119.734924289 300 100 328.540191335 100 350 c 2
 100 950 l 2
 100 980.265075711 128.540191335 1000 150 1000 c 2
450 700 m 1
 450 900 l 1
 200 900 l 1
 200 700 l 1
 450 700 l 1
450 600 m 1
 200 600 l 1
 200 400 l 1
 450 400 l 1
 450 600 l 1
EndSplineSet
EndChar

StartChar: NameMe.162
Encoding: 162 -1 151
Width: 1200
VWidth: 0
Flags: W
HStem: 300 100<200 450> 600 100<200 450> 900 100<200 450>
VStem: 100 100<400 600 700 900> 450 100<400 600 700 900>
CounterMasks: 1 e0
AnchorPoint: "Above" 600 0 basechar 0
LayerCount: 2
Fore
SplineSet
150 1000 m 2
 500 1000 l 2
 530.265075711 1000 550 971.459808665 550 950 c 2
 550 350 l 2
 550 319.734924289 521.459808665 300 500 300 c 2
 150 300 l 2
 119.734924289 300 100 328.540191335 100 350 c 2
 100 950 l 2
 100 980.265075711 128.540191335 1000 150 1000 c 2
450 700 m 1
 450 900 l 1
 200 900 l 1
 200 700 l 1
 450 700 l 1
450 600 m 1
 200 600 l 1
 200 400 l 1
 450 400 l 1
 450 600 l 1
EndSplineSet
EndChar

StartChar: NameMe.163
Encoding: 163 -1 152
Width: 1200
VWidth: 0
Flags: W
HStem: 300 100<200 450> 600 100<200 450> 900 100<200 450>
VStem: 100 100<400 600 700 900> 450 100<400 600 700 900>
CounterMasks: 1 e0
AnchorPoint: "Above" 600 0 basechar 0
LayerCount: 2
Fore
SplineSet
150 1000 m 2
 500 1000 l 2
 530.265075711 1000 550 971.459808665 550 950 c 2
 550 350 l 2
 550 319.734924289 521.459808665 300 500 300 c 2
 150 300 l 2
 119.734924289 300 100 328.540191335 100 350 c 2
 100 950 l 2
 100 980.265075711 128.540191335 1000 150 1000 c 2
450 700 m 1
 450 900 l 1
 200 900 l 1
 200 700 l 1
 450 700 l 1
450 600 m 1
 200 600 l 1
 200 400 l 1
 450 400 l 1
 450 600 l 1
EndSplineSet
EndChar

StartChar: NameMe.164
Encoding: 164 -1 153
Width: 1200
VWidth: 0
Flags: W
HStem: 300 100<200 450> 600 100<200 450> 900 100<200 450>
VStem: 100 100<400 600 700 900> 450 100<400 600 700 900>
CounterMasks: 1 e0
AnchorPoint: "Above" 600 0 basechar 0
LayerCount: 2
Fore
SplineSet
150 1000 m 2
 500 1000 l 2
 530.265075711 1000 550 971.459808665 550 950 c 2
 550 350 l 2
 550 319.734924289 521.459808665 300 500 300 c 2
 150 300 l 2
 119.734924289 300 100 328.540191335 100 350 c 2
 100 950 l 2
 100 980.265075711 128.540191335 1000 150 1000 c 2
450 700 m 1
 450 900 l 1
 200 900 l 1
 200 700 l 1
 450 700 l 1
450 600 m 1
 200 600 l 1
 200 400 l 1
 450 400 l 1
 450 600 l 1
EndSplineSet
EndChar

StartChar: NameMe.165
Encoding: 165 -1 154
Width: 1200
VWidth: 0
Flags: W
HStem: 300 100<200 450> 600 100<200 450> 900 100<200 450>
VStem: 100 100<400 600 700 900> 450 100<400 600 700 900>
CounterMasks: 1 e0
AnchorPoint: "Above" 600 0 basechar 0
LayerCount: 2
Fore
SplineSet
150 1000 m 2
 500 1000 l 2
 530.265075711 1000 550 971.459808665 550 950 c 2
 550 350 l 2
 550 319.734924289 521.459808665 300 500 300 c 2
 150 300 l 2
 119.734924289 300 100 328.540191335 100 350 c 2
 100 950 l 2
 100 980.265075711 128.540191335 1000 150 1000 c 2
450 700 m 1
 450 900 l 1
 200 900 l 1
 200 700 l 1
 450 700 l 1
450 600 m 1
 200 600 l 1
 200 400 l 1
 450 400 l 1
 450 600 l 1
EndSplineSet
EndChar

StartChar: NameMe.166
Encoding: 166 -1 155
Width: 1200
VWidth: 0
Flags: W
HStem: 300 100<200 450> 600 100<200 450> 900 100<200 450>
VStem: 100 100<400 600 700 900> 450 100<400 600 700 900>
CounterMasks: 1 e0
AnchorPoint: "Above" 600 0 basechar 0
LayerCount: 2
Fore
SplineSet
150 1000 m 2
 500 1000 l 2
 530.265075711 1000 550 971.459808665 550 950 c 2
 550 350 l 2
 550 319.734924289 521.459808665 300 500 300 c 2
 150 300 l 2
 119.734924289 300 100 328.540191335 100 350 c 2
 100 950 l 2
 100 980.265075711 128.540191335 1000 150 1000 c 2
450 700 m 1
 450 900 l 1
 200 900 l 1
 200 700 l 1
 450 700 l 1
450 600 m 1
 200 600 l 1
 200 400 l 1
 450 400 l 1
 450 600 l 1
EndSplineSet
EndChar

StartChar: NameMe.167
Encoding: 167 -1 156
Width: 1200
VWidth: 0
Flags: W
HStem: 300 100<200 450> 600 100<200 450> 900 100<200 450>
VStem: 100 100<400 600 700 900> 450 100<400 600 700 900>
CounterMasks: 1 e0
AnchorPoint: "Above" 600 0 basechar 0
LayerCount: 2
Fore
SplineSet
150 1000 m 2
 500 1000 l 2
 530.265075711 1000 550 971.459808665 550 950 c 2
 550 350 l 2
 550 319.734924289 521.459808665 300 500 300 c 2
 150 300 l 2
 119.734924289 300 100 328.540191335 100 350 c 2
 100 950 l 2
 100 980.265075711 128.540191335 1000 150 1000 c 2
450 700 m 1
 450 900 l 1
 200 900 l 1
 200 700 l 1
 450 700 l 1
450 600 m 1
 200 600 l 1
 200 400 l 1
 450 400 l 1
 450 600 l 1
EndSplineSet
EndChar

StartChar: NameMe.168
Encoding: 168 -1 157
Width: 1200
VWidth: 0
Flags: W
HStem: 300 100<200 450> 600 100<200 450> 900 100<200 450>
VStem: 100 100<400 600 700 900> 450 100<400 600 700 900>
CounterMasks: 1 e0
AnchorPoint: "Above" 600 0 basechar 0
LayerCount: 2
Fore
SplineSet
150 1000 m 2
 500 1000 l 2
 530.265075711 1000 550 971.459808665 550 950 c 2
 550 350 l 2
 550 319.734924289 521.459808665 300 500 300 c 2
 150 300 l 2
 119.734924289 300 100 328.540191335 100 350 c 2
 100 950 l 2
 100 980.265075711 128.540191335 1000 150 1000 c 2
450 700 m 1
 450 900 l 1
 200 900 l 1
 200 700 l 1
 450 700 l 1
450 600 m 1
 200 600 l 1
 200 400 l 1
 450 400 l 1
 450 600 l 1
EndSplineSet
EndChar

StartChar: NameMe.169
Encoding: 169 -1 158
Width: 1200
VWidth: 0
Flags: W
HStem: 300 100<200 450> 600 100<200 450> 900 100<200 450>
VStem: 100 100<400 600 700 900> 450 100<400 600 700 900>
CounterMasks: 1 e0
AnchorPoint: "Above" 600 0 basechar 0
LayerCount: 2
Fore
SplineSet
150 1000 m 2
 500 1000 l 2
 530.265075711 1000 550 971.459808665 550 950 c 2
 550 350 l 2
 550 319.734924289 521.459808665 300 500 300 c 2
 150 300 l 2
 119.734924289 300 100 328.540191335 100 350 c 2
 100 950 l 2
 100 980.265075711 128.540191335 1000 150 1000 c 2
450 700 m 1
 450 900 l 1
 200 900 l 1
 200 700 l 1
 450 700 l 1
450 600 m 1
 200 600 l 1
 200 400 l 1
 450 400 l 1
 450 600 l 1
EndSplineSet
EndChar

StartChar: NameMe.176
Encoding: 176 -1 164
Width: 1200
VWidth: 0
Flags: W
HStem: 300 100<200 450> 600 100<200 450> 900 100<200 450>
VStem: 100 100<400 600 700 900> 450 100<400 600 700 900>
CounterMasks: 1 e0
AnchorPoint: "Above" 600 0 basechar 0
LayerCount: 2
Fore
SplineSet
150 1000 m 2
 500 1000 l 2
 530.265075711 1000 550 971.459808665 550 950 c 2
 550 350 l 2
 550 319.734924289 521.459808665 300 500 300 c 2
 150 300 l 2
 119.734924289 300 100 328.540191335 100 350 c 2
 100 950 l 2
 100 980.265075711 128.540191335 1000 150 1000 c 2
450 700 m 1
 450 900 l 1
 200 900 l 1
 200 700 l 1
 450 700 l 1
450 600 m 1
 200 600 l 1
 200 400 l 1
 450 400 l 1
 450 600 l 1
EndSplineSet
EndChar

StartChar: NameMe.177
Encoding: 177 -1 165
Width: 1200
VWidth: 0
Flags: W
HStem: 300 100<200 450> 600 100<200 450> 900 100<200 450>
VStem: 100 100<400 600 700 900> 450 100<400 600 700 900>
CounterMasks: 1 e0
AnchorPoint: "Above" 600 0 basechar 0
LayerCount: 2
Fore
SplineSet
150 1000 m 2
 500 1000 l 2
 530.265075711 1000 550 971.459808665 550 950 c 2
 550 350 l 2
 550 319.734924289 521.459808665 300 500 300 c 2
 150 300 l 2
 119.734924289 300 100 328.540191335 100 350 c 2
 100 950 l 2
 100 980.265075711 128.540191335 1000 150 1000 c 2
450 700 m 1
 450 900 l 1
 200 900 l 1
 200 700 l 1
 450 700 l 1
450 600 m 1
 200 600 l 1
 200 400 l 1
 450 400 l 1
 450 600 l 1
EndSplineSet
EndChar

StartChar: NameMe.178
Encoding: 178 -1 166
Width: 1200
VWidth: 0
Flags: W
HStem: 300 100<200 450> 600 100<200 450> 900 100<200 450>
VStem: 100 100<400 600 700 900> 450 100<400 600 700 900>
CounterMasks: 1 e0
AnchorPoint: "Above" 600 0 basechar 0
LayerCount: 2
Fore
SplineSet
150 1000 m 2
 500 1000 l 2
 530.265075711 1000 550 971.459808665 550 950 c 2
 550 350 l 2
 550 319.734924289 521.459808665 300 500 300 c 2
 150 300 l 2
 119.734924289 300 100 328.540191335 100 350 c 2
 100 950 l 2
 100 980.265075711 128.540191335 1000 150 1000 c 2
450 700 m 1
 450 900 l 1
 200 900 l 1
 200 700 l 1
 450 700 l 1
450 600 m 1
 200 600 l 1
 200 400 l 1
 450 400 l 1
 450 600 l 1
EndSplineSet
EndChar

StartChar: NameMe.179
Encoding: 179 -1 167
Width: 1200
VWidth: 0
Flags: W
HStem: 300 100<200 450> 600 100<200 450> 900 100<200 450>
VStem: 100 100<400 600 700 900> 450 100<400 600 700 900>
CounterMasks: 1 e0
AnchorPoint: "Above" 600 0 basechar 0
LayerCount: 2
Fore
SplineSet
150 1000 m 2
 500 1000 l 2
 530.265075711 1000 550 971.459808665 550 950 c 2
 550 350 l 2
 550 319.734924289 521.459808665 300 500 300 c 2
 150 300 l 2
 119.734924289 300 100 328.540191335 100 350 c 2
 100 950 l 2
 100 980.265075711 128.540191335 1000 150 1000 c 2
450 700 m 1
 450 900 l 1
 200 900 l 1
 200 700 l 1
 450 700 l 1
450 600 m 1
 200 600 l 1
 200 400 l 1
 450 400 l 1
 450 600 l 1
EndSplineSet
EndChar

StartChar: NameMe.180
Encoding: 180 -1 168
Width: 1200
VWidth: 0
Flags: W
HStem: 300 100<200 450> 600 100<200 450> 900 100<200 450>
VStem: 100 100<400 600 700 900> 450 100<400 600 700 900>
CounterMasks: 1 e0
AnchorPoint: "Above" 600 0 basechar 0
LayerCount: 2
Fore
SplineSet
150 1000 m 2
 500 1000 l 2
 530.265075711 1000 550 971.459808665 550 950 c 2
 550 350 l 2
 550 319.734924289 521.459808665 300 500 300 c 2
 150 300 l 2
 119.734924289 300 100 328.540191335 100 350 c 2
 100 950 l 2
 100 980.265075711 128.540191335 1000 150 1000 c 2
450 700 m 1
 450 900 l 1
 200 900 l 1
 200 700 l 1
 450 700 l 1
450 600 m 1
 200 600 l 1
 200 400 l 1
 450 400 l 1
 450 600 l 1
EndSplineSet
EndChar

StartChar: NameMe.181
Encoding: 181 -1 169
Width: 1200
VWidth: 0
Flags: W
AnchorPoint: "Above" 600 0 basechar 0
LayerCount: 2
Fore
SplineSet
100 1000 m 1
 130.468690688 1039.64415326 l 1
 585.869081313 689.644153261 l 2
 613.540987578 668.376786363 608.170874146 627.495989024 585.869081313 610.355846739 c 2
 130.468690688 260.355846739 l 1
 100 300 l 1
 69.5313093119 339.644153261 l 1
 473.348948849 650 l 1
 69.5313093119 960.355846739 l 1
 100 1000 l 1
EndSplineSet
EndChar

StartChar: NameMe.182
Encoding: 182 -1 170
Width: 1200
VWidth: 0
Flags: W
HStem: 600 100<100 549.551>
VStem: 275 100<707.623 1000>
AnchorPoint: "Above" 600 0 basechar 0
LayerCount: 2
Fore
SplineSet
100 650 m 1
 100 700 l 1
 549.55078125 700 l 1
 549.55078125 650 l 1
 549.55078125 600 l 1
 100 600 l 1
 100 650 l 1
325 769 m 1
 275 769 l 1
 275 1000 l 1
 325 1000 l 1
 375 1000 l 1
 375 769 l 1
 325 769 l 1
560.827421521 323.012517227 m 1
 549.55078125 300.700195312 l 1
 526.997542658 256.075634485 l 1
 464.064107221 287.882172377 379.951560017 404.689638454 323.234994881 544.135954424 c 1
 263.745071952 403.508500499 175.180193584 291.382706116 128.960670003 258.541983513 c 1
 100 299.30078125 l 1
 71.0393299971 340.059578987 l 1
 101.873173626 361.968193074 272.818735982 582.001071172 275.003390648 769.582282868 c 0
 275.338096248 798.321141607 300.879065279 821.385251146 329.503076228 818.796810184 c 0
 355.16302456 816.476406469 375.275521455 794.134303158 374.997059916 768.457782522 c 0
 373.026098643 586.718401327 539.541499379 362.376068275 572.104061791 345.324839141 c 1
 560.827421521 323.012517227 l 1
EndSplineSet
EndChar

StartChar: NameMe.183
Encoding: 183 -1 171
Width: 1200
VWidth: 0
Flags: W
VStem: 100 100<534.946 1000> 450 100<300 765.054>
AnchorPoint: "Above" 600 0 basechar 0
LayerCount: 2
Fore
SplineSet
150 1000 m 1
 200 1000 l 1
 200 534.946028496 l 1
 456.811054955 975.193551276 l 2
 471.292715225 1000.0192546 504.891381671 1007.46397493 528.504370703 991.079202169 c 0
 542.742654439 981.199426118 550 962.084041171 550 950 c 2
 550 300 l 5
 500 300 l 1
 450 300 l 1
 450 765.053971504 l 1
 193.188945045 324.806448724 l 2
 185.688729653 311.948936623 170.471701694 301.456514363 153.922854272 300.154125403 c 0
 125.270640305 297.899205394 100 321.259192262 100 350 c 2
 100 1000 l 1
 150 1000 l 1
EndSplineSet
EndChar

StartChar: NameMe.184
Encoding: 184 -1 172
Width: 1200
VWidth: 0
Flags: W
HStem: 300 100<200 450> 600 100<200 450> 900 100<200 450>
VStem: 100 100<400 600 700 900> 450 100<400 600 700 900>
CounterMasks: 1 e0
AnchorPoint: "Above" 600 0 basechar 0
LayerCount: 2
Fore
SplineSet
150 1000 m 2
 500 1000 l 2
 530.265075711 1000 550 971.459808665 550 950 c 2
 550 350 l 2
 550 319.734924289 521.459808665 300 500 300 c 2
 150 300 l 2
 119.734924289 300 100 328.540191335 100 350 c 2
 100 950 l 2
 100 980.265075711 128.540191335 1000 150 1000 c 2
450 700 m 1
 450 900 l 1
 200 900 l 1
 200 700 l 1
 450 700 l 1
450 600 m 1
 200 600 l 1
 200 400 l 1
 450 400 l 1
 450 600 l 1
EndSplineSet
EndChar

StartChar: NameMe.185
Encoding: 185 -1 173
Width: 1200
VWidth: 0
Flags: W
HStem: 300 100<100 450> 600 100<200 450> 900 100<200 550>
VStem: 100 100<700 900> 450 100<400 600>
CounterMasks: 1 e0
AnchorPoint: "Above" 600 0 basechar 0
LayerCount: 2
Fore
SplineSet
550 950 m 1
 550 900 l 1
 200 900 l 1
 200 700 l 1
 500 700 l 2
 530.265075711 700 550 671.459808665 550 650 c 2
 550 350 l 2
 550 319.734924289 521.459808665 300 500 300 c 2
 100 300 l 1
 100 350 l 1
 100 400 l 1
 450 400 l 1
 450 600 l 1
 150 600 l 2
 128.540191335 600 100 619.734924289 100 650 c 2
 100 950 l 2
 100 971.459808665 119.734924289 1000 150 1000 c 2
 550 1000 l 1
 550 950 l 1
EndSplineSet
EndChar

StartChar: NameMe.193
Encoding: 193 -1 174
Width: 0
VWidth: 0
Flags: W
HStem: 0 100<750 1000> 450 100<750 1000> 900 100<750 1000>
VStem: 650 100<100 450 550 900> 1000 100<100 450 550 900>
CounterMasks: 1 e0
AnchorPoint: "Above" 600 0 mark 0
LayerCount: 2
Fore
SplineSet
700 1000 m 2
 1050 1000 l 2
 1080.26507571 1000 1100 971.459808665 1100 950 c 2
 1100 50 l 2
 1100 19.7349242889 1071.45980867 0 1050 0 c 2
 700 0 l 2
 669.734924289 0 650 28.5401913347 650 50 c 2
 650 950 l 2
 650 980.265075711 678.540191335 1000 700 1000 c 2
1000 550 m 1
 1000 900 l 1
 750 900 l 1
 750 550 l 1
 1000 550 l 1
1000 450 m 1
 750 450 l 1
 750 100 l 1
 1000 100 l 1
 1000 450 l 1
EndSplineSet
EndChar

StartChar: NameMe.194
Encoding: 194 -1 175
Width: 0
VWidth: 0
Flags: W
HStem: 0 100<750 1000> 450 100<750 1000> 900 100<750 1000>
VStem: 650 100<100 450 550 900> 1000 100<100 450 550 900>
CounterMasks: 1 e0
AnchorPoint: "Above" 600 0 mark 0
LayerCount: 2
Fore
SplineSet
700 1000 m 2
 1050 1000 l 2
 1080.26507571 1000 1100 971.459808665 1100 950 c 2
 1100 50 l 2
 1100 19.7349242889 1071.45980867 0 1050 0 c 2
 700 0 l 2
 669.734924289 0 650 28.5401913347 650 50 c 2
 650 950 l 2
 650 980.265075711 678.540191335 1000 700 1000 c 2
1000 550 m 1
 1000 900 l 1
 750 900 l 1
 750 550 l 1
 1000 550 l 1
1000 450 m 1
 750 450 l 1
 750 100 l 1
 1000 100 l 1
 1000 450 l 1
EndSplineSet
EndChar

StartChar: NameMe.195
Encoding: 195 -1 176
Width: 0
VWidth: 0
Flags: W
HStem: 0 100<750 1000> 450 100<750 1000> 900 100<750 1000>
VStem: 650 100<100 450 550 900> 1000 100<100 450 550 900>
CounterMasks: 1 e0
AnchorPoint: "Above" 600 0 mark 0
LayerCount: 2
Fore
SplineSet
700 1000 m 2
 1050 1000 l 2
 1080.26507571 1000 1100 971.459808665 1100 950 c 2
 1100 50 l 2
 1100 19.7349242889 1071.45980867 0 1050 0 c 2
 700 0 l 2
 669.734924289 0 650 28.5401913347 650 50 c 2
 650 950 l 2
 650 980.265075711 678.540191335 1000 700 1000 c 2
1000 550 m 1
 1000 900 l 1
 750 900 l 1
 750 550 l 1
 1000 550 l 1
1000 450 m 1
 750 450 l 1
 750 100 l 1
 1000 100 l 1
 1000 450 l 1
EndSplineSet
EndChar

StartChar: NameMe.196
Encoding: 196 -1 177
Width: 0
VWidth: 0
Flags: W
HStem: 0 100<750 1000> 450 100<750 1000> 900 100<750 1000>
VStem: 650 100<100 450 550 900> 1000 100<100 450 550 900>
CounterMasks: 1 e0
AnchorPoint: "Above" 600 0 mark 0
LayerCount: 2
Fore
SplineSet
700 1000 m 2
 1050 1000 l 2
 1080.26507571 1000 1100 971.459808665 1100 950 c 2
 1100 50 l 2
 1100 19.7349242889 1071.45980867 0 1050 0 c 2
 700 0 l 2
 669.734924289 0 650 28.5401913347 650 50 c 2
 650 950 l 2
 650 980.265075711 678.540191335 1000 700 1000 c 2
1000 550 m 1
 1000 900 l 1
 750 900 l 1
 750 550 l 1
 1000 550 l 1
1000 450 m 1
 750 450 l 1
 750 100 l 1
 1000 100 l 1
 1000 450 l 1
EndSplineSet
EndChar

StartChar: NameMe.197
Encoding: 197 -1 178
Width: 0
VWidth: 0
Flags: W
HStem: 0 100<750 1000> 450 100<750 1000> 900 100<750 1000>
VStem: 650 100<100 450 550 900> 1000 100<100 450 550 900>
CounterMasks: 1 e0
AnchorPoint: "Above" 600 0 mark 0
LayerCount: 2
Fore
SplineSet
700 1000 m 2
 1050 1000 l 2
 1080.26507571 1000 1100 971.459808665 1100 950 c 2
 1100 50 l 2
 1100 19.7349242889 1071.45980867 0 1050 0 c 2
 700 0 l 2
 669.734924289 0 650 28.5401913347 650 50 c 2
 650 950 l 2
 650 980.265075711 678.540191335 1000 700 1000 c 2
1000 550 m 1
 1000 900 l 1
 750 900 l 1
 750 550 l 1
 1000 550 l 1
1000 450 m 1
 750 450 l 1
 750 100 l 1
 1000 100 l 1
 1000 450 l 1
EndSplineSet
EndChar

StartChar: NameMe.198
Encoding: 198 -1 179
Width: 0
VWidth: 0
Flags: W
HStem: 0 100<750 1000> 450 100<750 1000> 900 100<750 1000>
VStem: 650 100<100 450 550 900> 1000 100<100 450 550 900>
CounterMasks: 1 e0
AnchorPoint: "Above" 600 0 mark 0
LayerCount: 2
Fore
SplineSet
700 1000 m 2
 1050 1000 l 2
 1080.26507571 1000 1100 971.459808665 1100 950 c 2
 1100 50 l 2
 1100 19.7349242889 1071.45980867 0 1050 0 c 2
 700 0 l 2
 669.734924289 0 650 28.5401913347 650 50 c 2
 650 950 l 2
 650 980.265075711 678.540191335 1000 700 1000 c 2
1000 550 m 1
 1000 900 l 1
 750 900 l 1
 750 550 l 1
 1000 550 l 1
1000 450 m 1
 750 450 l 1
 750 100 l 1
 1000 100 l 1
 1000 450 l 1
EndSplineSet
EndChar

StartChar: NameMe.199
Encoding: 199 -1 180
Width: 0
VWidth: 0
Flags: W
HStem: 0 100<750 1000> 450 100<750 1000> 900 100<750 1000>
VStem: 650 100<100 450 550 900> 1000 100<100 450 550 900>
CounterMasks: 1 e0
AnchorPoint: "Above" 600 0 mark 0
LayerCount: 2
Fore
SplineSet
700 1000 m 2
 1050 1000 l 2
 1080.26507571 1000 1100 971.459808665 1100 950 c 2
 1100 50 l 2
 1100 19.7349242889 1071.45980867 0 1050 0 c 2
 700 0 l 2
 669.734924289 0 650 28.5401913347 650 50 c 2
 650 950 l 2
 650 980.265075711 678.540191335 1000 700 1000 c 2
1000 550 m 1
 1000 900 l 1
 750 900 l 1
 750 550 l 1
 1000 550 l 1
1000 450 m 1
 750 450 l 1
 750 100 l 1
 1000 100 l 1
 1000 450 l 1
EndSplineSet
EndChar

StartChar: NameMe.200
Encoding: 200 -1 181
Width: 0
VWidth: 0
Flags: W
HStem: 0 100<750 1000> 450 100<750 1000> 900 100<750 1000>
VStem: 650 100<100 450 550 900> 1000 100<100 450 550 900>
CounterMasks: 1 e0
AnchorPoint: "Above" 600 0 mark 0
LayerCount: 2
Fore
SplineSet
700 1000 m 2
 1050 1000 l 2
 1080.26507571 1000 1100 971.459808665 1100 950 c 2
 1100 50 l 2
 1100 19.7349242889 1071.45980867 0 1050 0 c 2
 700 0 l 2
 669.734924289 0 650 28.5401913347 650 50 c 2
 650 950 l 2
 650 980.265075711 678.540191335 1000 700 1000 c 2
1000 550 m 1
 1000 900 l 1
 750 900 l 1
 750 550 l 1
 1000 550 l 1
1000 450 m 1
 750 450 l 1
 750 100 l 1
 1000 100 l 1
 1000 450 l 1
EndSplineSet
EndChar

StartChar: NameMe.201
Encoding: 201 -1 182
Width: 0
VWidth: 0
Flags: W
HStem: 0 100<750 1000> 450 100<750 1000> 900 100<750 1000>
VStem: 650 100<100 450 550 900> 1000 100<100 450 550 900>
CounterMasks: 1 e0
AnchorPoint: "Above" 600 0 mark 0
LayerCount: 2
Fore
SplineSet
700 1000 m 2
 1050 1000 l 2
 1080.26507571 1000 1100 971.459808665 1100 950 c 2
 1100 50 l 2
 1100 19.7349242889 1071.45980867 0 1050 0 c 2
 700 0 l 2
 669.734924289 0 650 28.5401913347 650 50 c 2
 650 950 l 2
 650 980.265075711 678.540191335 1000 700 1000 c 2
1000 550 m 1
 1000 900 l 1
 750 900 l 1
 750 550 l 1
 1000 550 l 1
1000 450 m 1
 750 450 l 1
 750 100 l 1
 1000 100 l 1
 1000 450 l 1
EndSplineSet
EndChar

StartChar: NameMe.208
Encoding: 208 -1 183
Width: 0
VWidth: 0
Flags: W
HStem: 0 100<750 1000> 900 100<750 1000>
VStem: 650 100<100 900> 1000 100<100 900>
AnchorPoint: "Above" 600 0 mark 0
LayerCount: 2
Back
SplineSet
700 950 m 5
 1050 950 l 29
 1050 50 l 5
 700 50 l 5
 700 950 l 5
EndSplineSet
Fore
SplineSet
750 900 m 1
 750 100 l 1
 1000 100 l 1
 1000 900 l 1
 750 900 l 1
700 1000 m 2
 1050 1000 l 2
 1080.26507571 1000 1100 971.459808665 1100 950 c 2
 1100 50 l 2
 1100 19.7349242889 1071.45980867 0 1050 0 c 2
 700 0 l 2
 669.734924289 0 650 28.5401913347 650 50 c 2
 650 950 l 2
 650 980.265075711 678.540191335 1000 700 1000 c 2
EndSplineSet
EndChar

StartChar: NameMe.209
Encoding: 209 -1 184
Width: 0
VWidth: 0
Flags: W
HStem: 0 100<750 1000> 900 100<750 1000>
VStem: 650 100<100 900> 1000 100<100 900>
AnchorPoint: "Above" 600 0 mark 0
LayerCount: 2
Fore
SplineSet
750 900 m 1
 750 100 l 1
 1000 100 l 1
 1000 900 l 1
 750 900 l 1
700 1000 m 2
 1050 1000 l 2
 1080.26507571 1000 1100 971.459808665 1100 950 c 2
 1100 50 l 2
 1100 19.7349242889 1071.45980867 0 1050 0 c 2
 700 0 l 2
 669.734924289 0 650 28.5401913347 650 50 c 2
 650 950 l 2
 650 980.265075711 678.540191335 1000 700 1000 c 2
EndSplineSet
EndChar

StartChar: NameMe.210
Encoding: 210 -1 185
Width: 0
VWidth: 0
Flags: W
HStem: 0 100<750 1000> 900 100<750 1000>
VStem: 650 100<100 900> 1000 100<100 900>
AnchorPoint: "Above" 600 0 mark 0
LayerCount: 2
Fore
SplineSet
750 900 m 1
 750 100 l 1
 1000 100 l 1
 1000 900 l 1
 750 900 l 1
700 1000 m 2
 1050 1000 l 2
 1080.26507571 1000 1100 971.459808665 1100 950 c 2
 1100 50 l 2
 1100 19.7349242889 1071.45980867 0 1050 0 c 2
 700 0 l 2
 669.734924289 0 650 28.5401913347 650 50 c 2
 650 950 l 2
 650 980.265075711 678.540191335 1000 700 1000 c 2
EndSplineSet
EndChar

StartChar: NameMe.211
Encoding: 211 -1 186
Width: 0
VWidth: 0
Flags: W
HStem: 0 100<750 1000> 900 100<750 1000>
VStem: 650 100<100 900> 1000 100<100 900>
AnchorPoint: "Above" 600 0 mark 0
LayerCount: 2
Fore
SplineSet
750 900 m 1
 750 100 l 1
 1000 100 l 1
 1000 900 l 1
 750 900 l 1
700 1000 m 2
 1050 1000 l 2
 1080.26507571 1000 1100 971.459808665 1100 950 c 2
 1100 50 l 2
 1100 19.7349242889 1071.45980867 0 1050 0 c 2
 700 0 l 2
 669.734924289 0 650 28.5401913347 650 50 c 2
 650 950 l 2
 650 980.265075711 678.540191335 1000 700 1000 c 2
EndSplineSet
EndChar

StartChar: NameMe.212
Encoding: 212 -1 187
Width: 0
VWidth: 0
Flags: W
HStem: 0 100<750 1000> 900 100<750 1000>
VStem: 650 100<100 900> 1000 100<100 900>
AnchorPoint: "Above" 600 0 mark 0
LayerCount: 2
Fore
SplineSet
750 900 m 1
 750 100 l 1
 1000 100 l 1
 1000 900 l 1
 750 900 l 1
700 1000 m 2
 1050 1000 l 2
 1080.26507571 1000 1100 971.459808665 1100 950 c 2
 1100 50 l 2
 1100 19.7349242889 1071.45980867 0 1050 0 c 2
 700 0 l 2
 669.734924289 0 650 28.5401913347 650 50 c 2
 650 950 l 2
 650 980.265075711 678.540191335 1000 700 1000 c 2
EndSplineSet
EndChar

StartChar: NameMe.213
Encoding: 213 -1 188
Width: 0
VWidth: 0
Flags: W
HStem: 0 100<750 1000> 900 100<750 1000>
VStem: 650 100<100 900> 1000 100<100 900>
AnchorPoint: "Above" 600 0 mark 0
LayerCount: 2
Fore
SplineSet
750 900 m 1
 750 100 l 1
 1000 100 l 1
 1000 900 l 1
 750 900 l 1
700 1000 m 2
 1050 1000 l 2
 1080.26507571 1000 1100 971.459808665 1100 950 c 2
 1100 50 l 2
 1100 19.7349242889 1071.45980867 0 1050 0 c 2
 700 0 l 2
 669.734924289 0 650 28.5401913347 650 50 c 2
 650 950 l 2
 650 980.265075711 678.540191335 1000 700 1000 c 2
EndSplineSet
EndChar

StartChar: NameMe.214
Encoding: 214 -1 189
Width: 0
VWidth: 0
Flags: W
HStem: 0 100<750 1000> 900 100<750 1000>
VStem: 650 100<100 900> 1000 100<100 900>
AnchorPoint: "Above" 600 0 mark 0
LayerCount: 2
Fore
SplineSet
750 900 m 1
 750 100 l 1
 1000 100 l 1
 1000 900 l 1
 750 900 l 1
700 1000 m 2
 1050 1000 l 2
 1080.26507571 1000 1100 971.459808665 1100 950 c 2
 1100 50 l 2
 1100 19.7349242889 1071.45980867 0 1050 0 c 2
 700 0 l 2
 669.734924289 0 650 28.5401913347 650 50 c 2
 650 950 l 2
 650 980.265075711 678.540191335 1000 700 1000 c 2
EndSplineSet
EndChar

StartChar: NameMe.215
Encoding: 215 -1 190
Width: 0
VWidth: 0
Flags: W
HStem: 0 100<750 1000> 900 100<750 1000>
VStem: 650 100<100 900> 1000 100<100 900>
AnchorPoint: "Above" 600 0 mark 0
LayerCount: 2
Fore
SplineSet
750 900 m 1
 750 100 l 1
 1000 100 l 1
 1000 900 l 1
 750 900 l 1
700 1000 m 2
 1050 1000 l 2
 1080.26507571 1000 1100 971.459808665 1100 950 c 2
 1100 50 l 2
 1100 19.7349242889 1071.45980867 0 1050 0 c 2
 700 0 l 2
 669.734924289 0 650 28.5401913347 650 50 c 2
 650 950 l 2
 650 980.265075711 678.540191335 1000 700 1000 c 2
EndSplineSet
EndChar

StartChar: NameMe.216
Encoding: 216 -1 191
Width: 0
VWidth: 0
Flags: W
HStem: 0 100<750 1000> 900 100<750 1000>
VStem: 650 100<100 900> 1000 100<100 900>
AnchorPoint: "Above" 600 0 mark 0
LayerCount: 2
Fore
SplineSet
750 900 m 1
 750 100 l 1
 1000 100 l 1
 1000 900 l 1
 750 900 l 1
700 1000 m 2
 1050 1000 l 2
 1080.26507571 1000 1100 971.459808665 1100 950 c 2
 1100 50 l 2
 1100 19.7349242889 1071.45980867 0 1050 0 c 2
 700 0 l 2
 669.734924289 0 650 28.5401913347 650 50 c 2
 650 950 l 2
 650 980.265075711 678.540191335 1000 700 1000 c 2
EndSplineSet
EndChar

StartChar: NameMe.217
Encoding: 217 -1 192
Width: 0
VWidth: 0
Flags: W
HStem: 0 100<750 1000> 900 100<750 1000>
VStem: 650 100<100 900> 1000 100<100 900>
AnchorPoint: "Above" 600 0 mark 0
LayerCount: 2
Fore
SplineSet
750 900 m 1
 750 100 l 1
 1000 100 l 1
 1000 900 l 1
 750 900 l 1
700 1000 m 2
 1050 1000 l 2
 1080.26507571 1000 1100 971.459808665 1100 950 c 2
 1100 50 l 2
 1100 19.7349242889 1071.45980867 0 1050 0 c 2
 700 0 l 2
 669.734924289 0 650 28.5401913347 650 50 c 2
 650 950 l 2
 650 980.265075711 678.540191335 1000 700 1000 c 2
EndSplineSet
EndChar

StartChar: NameMe.352
Encoding: 352 -1 193
Width: 1200
VWidth: 0
Flags: W
HStem: 0.5 100<199.5 800> 288 100<514.112 645.888> 912 100<514.112 645.888>
VStem: 99.5 100<100.5 999.5> 348 100<464.785 835.215> 712 100<464.785 835.215>
AnchorPoint: "Above" 600 0 basechar 0
LayerCount: 2
Back
SplineSet
398 650 m 4
 398 822.529801325 480 962 580 962 c 4
 680 962 762 822.529801325 762 650 c 4
 762 477.470198675 680 338 580 338 c 4
 480 338 398 477.470198675 398 650 c 4
149.5 999.5 m 25
 149.5 50.5 l 1
 800 50.5 l 1049
EndSplineSet
Fore
SplineSet
448 650 m 0
 448 482.48414369 529.49999374 388 580 388 c 0
 630.499087973 388 712 482.487773808 712 650 c 0
 712 817.51585631 630.50000626 912 580 912 c 0
 529.500912027 912 448 817.512226192 448 650 c 0
348 650 m 0
 348 827.547376457 430.499087973 1012 580 1012 c 0
 729.49999374 1012 812 827.543746339 812 650 c 0
 812 472.452623543 729.500912027 288 580 288 c 0
 430.50000626 288 348 472.456253661 348 650 c 0
149.5 999.5 m 1
 199.5 999.5 l 1
 199.5 100.5 l 1
 800 100.5 l 1
 800 50.5 l 1
 800 0.5 l 1
 149.5 0.5 l 2
 128.040191335 0.5 99.5 20.2349242889 99.5 50.5 c 2
 99.5 999.5 l 1
 149.5 999.5 l 1
EndSplineSet
EndChar

StartChar: NameMe.353
Encoding: 353 -1 194
Width: 1200
VWidth: 0
Flags: W
HStem: 0.5 100<99.5 700> 288 100<254.112 385.888> 912 100<254.112 385.888>
VStem: 88 100<464.785 835.215> 452 100<464.785 835.215> 700 100<100.5 999.5>
AnchorPoint: "Above" 600 0 basechar 0
LayerCount: 2
Back
SplineSet
99.5 50.5 m 5
 750 50.5 l 29
 750 999.5 l 1053
138 650 m 4
 138 822.529801325 220 962 320 962 c 4
 420 962 502 822.529801325 502 650 c 4
 502 477.470198675 420 338 320 338 c 4
 220 338 138 477.470198675 138 650 c 4
EndSplineSet
Fore
SplineSet
99.5 50.5 m 1
 99.5 100.5 l 1
 700 100.5 l 1
 700 999.5 l 1
 750 999.5 l 1
 800 999.5 l 1
 800 50.5 l 2
 800 29.0401913347 780.265075711 0.5 750 0.5 c 2
 99.5 0.5 l 1
 99.5 50.5 l 1
188 650 m 0
 188 482.48414369 269.49999374 388 320 388 c 0
 370.499087973 388 452 482.487773808 452 650 c 0
 452 817.51585631 370.50000626 912 320 912 c 0
 269.500912027 912 188 817.512226192 188 650 c 0
88 650 m 0
 88 827.547376457 170.499087973 1012 320 1012 c 0
 469.49999374 1012 552 827.543746339 552 650 c 0
 552 472.452623543 469.500912027 288 320 288 c 0
 170.50000626 288 88 472.456253661 88 650 c 0
99.5 50.5 m 1
 99.5 100.5 l 1
 700 100.5 l 1
 700 999.5 l 1
 750 999.5 l 1
 800 999.5 l 1
 800 50.5 l 2
 800 29.0401913347 780.265075711 0.5 750 0.5 c 2
 99.5 0.5 l 1
 99.5 50.5 l 1
EndSplineSet
EndChar

StartChar: NameMe.354
Encoding: 354 -1 195
Width: 1200
VWidth: 0
Flags: W
HStem: 300 100<200 999> 600 100<200 999> 900 100<200 999>
VStem: 100 100<400 600 700 900> 999 100<400 600 700 900>
AnchorPoint: "Above" 600 0 basechar 0
LayerCount: 2
Fore
SplineSet
150 1000 m 1
 200 1000 l 1
 200 400.026308864 l 1
 1100.47369806 400.499993082 l 1
 1100.5 350.5 l 1
 1100.52630194 300.500006918 l 1
 150.026301943 300.000006918 l 2
 128.517836118 299.988692628 100 319.743402766 100 350 c 2
 100 1000 l 1
 150 1000 l 1
EndSplineSet
EndChar

StartChar: NameMe.355
Encoding: 355 -1 196
Width: 1200
VWidth: 0
Flags: W
HStem: 300 100<200 999> 600 100<200 999> 900 100<200 999>
VStem: 100 100<400 600 700 900> 999 100<400 600 700 900>
AnchorPoint: "Above" 600 0 basechar 0
LayerCount: 2
Fore
SplineSet
99.5 350 m 1
 99.5 400 l 1
 1000.5 400 l 1
 1000.5 999.5 l 1
 1050.5 999.5 l 1
 1100.5 999.5 l 1
 1100.5 350 l 2
 1100.5 328.540191335 1080.76507571 300 1050.5 300 c 2
 99.5 300 l 1
 99.5 350 l 1
EndSplineSet
EndChar
